<svg width="17" height="17" viewBox="0 0 17 17" fill="none" xmlns="http://www.w3.org/2000/svg">
<path fill-rule="evenodd" clip-rule="evenodd" d="M14.0664 2.17188H12.7188V1.46875C12.7188 1.20988 12.5089 1 12.25 1C11.9911 1 11.7812 1.20988 11.7812 1.46875V2.17188H5.21875V1.46875C5.21875 1.20988 5.0089 1 4.75 1C4.4911 1 4.28125 1.20988 4.28125 1.46875V2.17188H2.93359C1.86739 2.17188 1 3.03927 1 4.10547V14.0664C1 15.1326 1.86739 16 2.93359 16H14.0664C15.1326 16 16 15.1326 16 14.0664V4.10547C16 3.03927 15.1326 2.17188 14.0664 2.17188ZM2.93359 3.10938H4.28125V3.57812C4.28125 3.83699 4.4911 4.04688 4.75 4.04688C5.0089 4.04688 5.21875 3.83699 5.21875 3.57812V3.10938H11.7812V3.57812C11.7812 3.83699 11.9911 4.04688 12.25 4.04688C12.5089 4.04688 12.7188 3.83699 12.7188 3.57812V3.10938H14.0664C14.6157 3.10938 15.0625 3.55621 15.0625 4.10547V5.21875H1.9375V4.10547C1.9375 3.55621 2.38434 3.10938 2.93359 3.10938ZM2.93359 15.0625H14.0664C14.6157 15.0625 15.0625 14.6157 15.0625 14.0664V6.15625H1.9375V14.0664C1.9375 14.6157 2.38434 15.0625 2.93359 15.0625Z" fill="white"/>
<path d="M12.7188 2.17188H12.4688V2.42188H12.7188V2.17188ZM11.7812 2.17188V2.42188H12.0312V2.17188H11.7812ZM5.21875 2.17188H4.96875V2.42188H5.21875V2.17188ZM4.28125 2.17188V2.42188H4.53125V2.17188H4.28125ZM4.28125 3.10938H4.53125V2.85938H4.28125V3.10938ZM5.21875 3.10938V2.85938H4.96875V3.10938H5.21875ZM11.7812 3.10938H12.0312V2.85938H11.7812V3.10938ZM12.7188 3.10938V2.85938H12.4688V3.10938H12.7188ZM15.0625 5.21875V5.46875H15.3125V5.21875H15.0625ZM1.9375 5.21875H1.6875V5.46875H1.9375V5.21875ZM15.0625 6.15625H15.3125V5.90625H15.0625V6.15625ZM1.9375 6.15625V5.90625H1.6875V6.15625H1.9375ZM12.7188 2.42188H14.0664V1.92188H12.7188V2.42188ZM12.4688 1.46875V2.17188H12.9688V1.46875H12.4688ZM12.25 1.25C12.3708 1.25 12.4688 1.34794 12.4688 1.46875H12.9688C12.9688 1.07182 12.647 0.75 12.25 0.75V1.25ZM12.0312 1.46875C12.0312 1.34794 12.1292 1.25 12.25 1.25V0.75C11.853 0.75 11.5312 1.07182 11.5312 1.46875H12.0312ZM12.0312 2.17188V1.46875H11.5312V2.17188H12.0312ZM5.21875 2.42188H11.7812V1.92188H5.21875V2.42188ZM4.96875 1.46875V2.17188H5.46875V1.46875H4.96875ZM4.75 1.25C4.87082 1.25 4.96875 1.34794 4.96875 1.46875H5.46875C5.46875 1.07182 5.14698 0.75 4.75 0.75V1.25ZM4.53125 1.46875C4.53125 1.34794 4.62918 1.25 4.75 1.25V0.75C4.35302 0.75 4.03125 1.07182 4.03125 1.46875H4.53125ZM4.53125 2.17188V1.46875H4.03125V2.17188H4.53125ZM2.93359 2.42188H4.28125V1.92188H2.93359V2.42188ZM1.25 4.10547C1.25 3.17734 2.00546 2.42188 2.93359 2.42188V1.92188C1.72932 1.92188 0.75 2.9012 0.75 4.10547H1.25ZM1.25 14.0664V4.10547H0.75V14.0664H1.25ZM2.93359 15.75C2.00546 15.75 1.25 14.9945 1.25 14.0664H0.75C0.75 15.2707 1.72932 16.25 2.93359 16.25V15.75ZM14.0664 15.75H2.93359V16.25H14.0664V15.75ZM15.75 14.0664C15.75 14.9945 14.9945 15.75 14.0664 15.75V16.25C15.2707 16.25 16.25 15.2707 16.25 14.0664H15.75ZM15.75 4.10547V14.0664H16.25V4.10547H15.75ZM14.0664 2.42188C14.9945 2.42188 15.75 3.17734 15.75 4.10547H16.25C16.25 2.9012 15.2707 1.92188 14.0664 1.92188V2.42188ZM4.28125 2.85938H2.93359V3.35938H4.28125V2.85938ZM4.53125 3.57812V3.10938H4.03125V3.57812H4.53125ZM4.75 3.79688C4.62918 3.79688 4.53125 3.69893 4.53125 3.57812H4.03125C4.03125 3.97505 4.35302 4.29688 4.75 4.29688V3.79688ZM4.96875 3.57812C4.96875 3.69893 4.87082 3.79688 4.75 3.79688V4.29688C5.14698 4.29688 5.46875 3.97505 5.46875 3.57812H4.96875ZM4.96875 3.10938V3.57812H5.46875V3.10938H4.96875ZM11.7812 2.85938H5.21875V3.35938H11.7812V2.85938ZM12.0312 3.57812V3.10938H11.5312V3.57812H12.0312ZM12.25 3.79688C12.1292 3.79688 12.0312 3.69893 12.0312 3.57812H11.5312C11.5312 3.97505 11.853 4.29688 12.25 4.29688V3.79688ZM12.4688 3.57812C12.4688 3.69893 12.3708 3.79688 12.25 3.79688V4.29688C12.647 4.29688 12.9688 3.97505 12.9688 3.57812H12.4688ZM12.4688 3.10938V3.57812H12.9688V3.10938H12.4688ZM14.0664 2.85938H12.7188V3.35938H14.0664V2.85938ZM15.3125 4.10547C15.3125 3.41814 14.7537 2.85938 14.0664 2.85938V3.35938C14.4776 3.35938 14.8125 3.69428 14.8125 4.10547H15.3125ZM15.3125 5.21875V4.10547H14.8125V5.21875H15.3125ZM1.9375 5.46875H15.0625V4.96875H1.9375V5.46875ZM1.6875 4.10547V5.21875H2.1875V4.10547H1.6875ZM2.93359 2.85938C2.24626 2.85938 1.6875 3.41814 1.6875 4.10547H2.1875C2.1875 3.69428 2.52241 3.35938 2.93359 3.35938V2.85938ZM14.0664 14.8125H2.93359V15.3125H14.0664V14.8125ZM14.8125 14.0664C14.8125 14.4776 14.4776 14.8125 14.0664 14.8125V15.3125C14.7537 15.3125 15.3125 14.7537 15.3125 14.0664H14.8125ZM14.8125 6.15625V14.0664H15.3125V6.15625H14.8125ZM1.9375 6.40625H15.0625V5.90625H1.9375V6.40625ZM2.1875 14.0664V6.15625H1.6875V14.0664H2.1875ZM2.93359 14.8125C2.52241 14.8125 2.1875 14.4776 2.1875 14.0664H1.6875C1.6875 14.7537 2.24626 15.3125 2.93359 15.3125V14.8125Z" fill="white"/>
</svg>
