<svg width="11" height="11" viewBox="0 0 11 11" fill="none" xmlns="http://www.w3.org/2000/svg">
<mask id="path-1-inside-1_1427_326" fill="white">
<path d="M7.14951 6.5833L5.49962 5.45831V3.16667C5.49962 2.93625 5.29476 2.75 5.04132 2.75C4.78787 2.75 4.58301 2.93625 4.58301 3.16667V5.66666C4.58301 5.79791 4.65084 5.92167 4.76633 6L6.59952 7.25C6.682 7.30625 6.77826 7.33333 6.87404 7.33333C7.01382 7.33333 7.15131 7.27624 7.24115 7.16624C7.39334 6.98247 7.35209 6.72123 7.14951 6.5833Z"/>
</mask>
<path d="M7.14951 6.5833L5.49962 5.45831V3.16667C5.49962 2.93625 5.29476 2.75 5.04132 2.75C4.78787 2.75 4.58301 2.93625 4.58301 3.16667V5.66666C4.58301 5.79791 4.65084 5.92167 4.76633 6L6.59952 7.25C6.682 7.30625 6.77826 7.33333 6.87404 7.33333C7.01382 7.33333 7.15131 7.27624 7.24115 7.16624C7.39334 6.98247 7.35209 6.72123 7.14951 6.5833Z" fill="white"/>
<path d="M7.14951 6.5833L6.21996 7.94655L6.2209 7.94719L7.14951 6.5833ZM5.49962 5.45831H3.84962V6.3303L4.57008 6.82155L5.49962 5.45831ZM4.76633 6L5.69589 4.63676L5.69253 4.63448L4.76633 6ZM6.59952 7.25L7.52913 5.88679L7.52907 5.88676L6.59952 7.25ZM7.24115 7.16624L5.97032 6.11381L5.96319 6.12254L7.24115 7.16624ZM8.07906 5.22005L6.42917 4.09506L4.57008 6.82155L6.21996 7.94655L8.07906 5.22005ZM7.14962 5.45831V3.16667H3.84962V5.45831H7.14962ZM7.14962 3.16667C7.14962 1.88061 6.05463 1.1 5.04132 1.1V4.4C4.53489 4.4 3.84962 3.99189 3.84962 3.16667H7.14962ZM5.04132 1.1C4.028 1.1 2.93301 1.88062 2.93301 3.16667H6.23301C6.23301 3.99189 5.54774 4.4 5.04132 4.4V1.1ZM2.93301 3.16667V5.66666H6.23301V3.16667H2.93301ZM2.93301 5.66666C2.93301 6.3818 3.30334 7.00143 3.84013 7.36553L5.69253 4.63448C5.99834 4.8419 6.23301 5.21401 6.23301 5.66666H2.93301ZM3.83678 7.36324L5.66996 8.61324L7.52907 5.88676L5.69589 4.63676L3.83678 7.36324ZM5.66991 8.6132C6.04476 8.86883 6.46956 8.98333 6.87404 8.98333V5.68333C7.08697 5.68333 7.31925 5.74367 7.52913 5.88679L5.66991 8.6132ZM6.87404 8.98333C7.44701 8.98333 8.07856 8.74937 8.51911 8.20995L5.96319 6.12254C6.22406 5.80311 6.58063 5.68333 6.87404 5.68333V8.98333ZM8.51195 8.21866C9.31635 7.24733 9.04242 5.87596 8.07812 5.21941L6.2209 7.94719C5.66175 7.56649 5.47033 6.71761 5.97035 6.11383L8.51195 8.21866Z" fill="#7665A7" mask="url(#path-1-inside-1_1427_326)"/>
<mask id="path-3-inside-2_1427_326" fill="white">
<path d="M5.5 0C2.46712 0 0 2.46712 0 5.5C0 8.53288 2.46712 11 5.5 11C8.53288 11 11 8.53288 11 5.5C11 2.46712 8.53288 0 5.5 0ZM5.5 10.148C2.93745 10.148 0.852049 8.06255 0.852049 5.5C0.852049 2.93745 2.93745 0.852049 5.5 0.852049C8.06298 0.852049 10.148 2.93745 10.148 5.5C10.148 8.06255 8.06255 10.148 5.5 10.148Z"/>
</mask>
<path d="M5.5 0C2.46712 0 0 2.46712 0 5.5C0 8.53288 2.46712 11 5.5 11C8.53288 11 11 8.53288 11 5.5C11 2.46712 8.53288 0 5.5 0ZM5.5 10.148C2.93745 10.148 0.852049 8.06255 0.852049 5.5C0.852049 2.93745 2.93745 0.852049 5.5 0.852049C8.06298 0.852049 10.148 2.93745 10.148 5.5C10.148 8.06255 8.06255 10.148 5.5 10.148Z" fill="#7665A7"/>
<path d="M5.5 -1.65C1.55585 -1.65 -1.65 1.55585 -1.65 5.5H1.65C1.65 3.37839 3.37839 1.65 5.5 1.65V-1.65ZM-1.65 5.5C-1.65 9.44415 1.55585 12.65 5.5 12.65V9.35C3.37839 9.35 1.65 7.62161 1.65 5.5H-1.65ZM5.5 12.65C9.44415 12.65 12.65 9.44415 12.65 5.5H9.35C9.35 7.62161 7.62161 9.35 5.5 9.35V12.65ZM12.65 5.5C12.65 1.55585 9.44415 -1.65 5.5 -1.65V1.65C7.62161 1.65 9.35 3.37839 9.35 5.5H12.65ZM5.5 8.49795C3.84872 8.49795 2.50205 7.15128 2.50205 5.5H-0.797951C-0.797951 8.97382 2.02618 11.798 5.5 11.798V8.49795ZM2.50205 5.5C2.50205 3.84872 3.84872 2.50205 5.5 2.50205V-0.797951C2.02618 -0.797951 -0.797951 2.02618 -0.797951 5.5H2.50205ZM5.5 2.50205C7.15161 2.50205 8.49795 3.84862 8.49795 5.5H11.798C11.798 2.02628 8.97435 -0.797951 5.5 -0.797951V2.50205ZM8.49795 5.5C8.49795 7.15128 7.15128 8.49795 5.5 8.49795V11.798C8.97382 11.798 11.798 8.97382 11.798 5.5H8.49795Z" fill="#7665A7" mask="url(#path-3-inside-2_1427_326)"/>
</svg>
