<svg width="20" height="20" viewBox="0 0 20 20" fill="none" xmlns="http://www.w3.org/2000/svg">
<path d="M0 3C0 1.34315 1.34315 0 3 0H17C18.6569 0 20 1.34315 20 3V17C20 18.6569 18.6569 20 17 20H3C1.34315 20 0 18.6569 0 17V3Z" fill="#511FE0"/>
<path d="M10.4371 9.75006L13.3575 6.82956C13.5475 6.63959 13.5475 6.33244 13.3575 6.14247C13.1675 5.95251 12.8604 5.95251 12.6704 6.14247L9.74996 9.06297L6.82961 6.14247C6.63955 5.95251 6.3325 5.95251 6.14254 6.14247C5.95249 6.33244 5.95249 6.63959 6.14254 6.82956L9.06289 9.75006L6.14254 12.6706C5.95249 12.8605 5.95249 13.1677 6.14254 13.3576C6.23721 13.4524 6.36168 13.5 6.48607 13.5C6.61046 13.5 6.73485 13.4524 6.82961 13.3576L9.74996 10.4371L12.6704 13.3576C12.7652 13.4524 12.8895 13.5 13.0139 13.5C13.1383 13.5 13.2627 13.4524 13.3575 13.3576C13.5475 13.1677 13.5475 12.8605 13.3575 12.6706L10.4371 9.75006Z" fill="white" stroke="white" stroke-width="0.5"/>
</svg>
