<svg width="17" height="16" viewBox="0 0 17 16" fill="none" xmlns="http://www.w3.org/2000/svg">
<path d="M3.33348e-05 14.1261C3.33348e-05 13.6765 0.177092 13.2453 0.492392 12.9274C0.807682 12.6096 1.23517 12.4309 1.681 12.4309C2.12683 12.4309 2.55445 12.6095 2.86973 12.9274C3.18489 13.2453 3.36209 13.6765 3.36209 14.1261C3.36209 14.5757 3.1849 15.0069 2.86973 15.3247C2.55444 15.6426 2.12686 15.8212 1.681 15.8212C1.23517 15.8212 0.807679 15.6426 0.492392 15.3247C0.177102 15.0069 3.33348e-05 14.5757 3.33348e-05 14.1261ZM1.68096 3.39031C2.12679 3.39031 2.55441 3.21163 2.8697 2.89382C3.18486 2.57588 3.36206 2.1447 3.36206 1.69509C3.36206 1.24551 3.18487 0.814298 2.8697 0.496496C2.55441 0.178556 2.12683 0 1.68096 0C1.23513 0 0.807645 0.178546 0.492359 0.496496C0.177068 0.814305 0 1.24551 0 1.69509C0 2.14467 0.177058 2.57588 0.492359 2.89382C0.807649 3.21162 1.23513 3.39031 1.68096 3.39031ZM1.68096 9.60576V9.60563C2.12679 9.60563 2.55441 9.42708 2.8697 9.10913C3.18486 8.79133 3.36206 8.36012 3.36206 7.91054C3.36206 7.46096 3.18487 7.02975 2.8697 6.71195C2.55441 6.39401 2.12683 6.21545 1.68096 6.21545C1.23513 6.21545 0.807645 6.394 0.492359 6.71195C0.177068 7.02976 0 7.46096 0 7.91054C0 8.36012 0.177058 8.79133 0.492359 9.10913C0.807649 9.42707 1.23513 9.60563 1.68096 9.60563V9.60576ZM7.28429 2.82527H15.6893C16.0896 2.82527 16.4597 2.60981 16.6599 2.2602C16.86 1.91058 16.86 1.4798 16.6599 1.13005C16.4597 0.780429 16.0896 0.565108 15.6893 0.565108H7.28429C6.88391 0.565108 6.51403 0.780439 6.31378 1.13005C6.11366 1.47977 6.11366 1.91058 6.31378 2.2602C6.51402 2.60982 6.88391 2.82527 7.28429 2.82527ZM7.28429 9.04072H15.6893C16.0896 9.04072 16.4597 8.82526 16.6599 8.47565C16.86 8.12593 16.86 7.69525 16.6599 7.3455C16.4597 6.99588 16.0896 6.78042 15.6893 6.78042H7.28429C6.88391 6.78042 6.51403 6.99588 6.31378 7.3455C6.11366 7.69522 6.11366 8.12589 6.31378 8.47565C6.51402 8.82527 6.88391 9.04072 7.28429 9.04072ZM7.28429 15.2562L15.6893 15.256C16.0896 15.256 16.4597 15.0407 16.6599 14.6911C16.86 14.3414 16.86 13.9106 16.6599 13.561C16.4597 13.2113 16.0896 12.9959 15.6893 12.9959H7.28429C6.88391 12.9959 6.51403 13.2113 6.31378 13.561C6.11366 13.9106 6.11366 14.3413 6.31378 14.6911C6.51402 15.0407 6.88391 15.256 7.28429 15.256V15.2562Z" fill="white"/>
</svg>
