<svg width="20" height="15" viewBox="0 0 20 15" fill="none" xmlns="http://www.w3.org/2000/svg">
<path d="M10.7231 7.2443C10.6484 7.16857 10.5271 7.16857 10.4524 7.2443L7.74405 9.99309L6.55326 8.79367C6.47857 8.71794 6.35726 8.71794 6.28258 8.79367C6.20789 8.8694 6.20789 8.99199 6.28258 9.06753L7.60927 10.4037C7.6832 10.4784 7.80621 10.4784 7.88014 10.4037L10.7231 7.51815C10.798 7.44262 10.798 7.31983 10.7231 7.2443C10.798 7.31983 10.6484 7.16857 10.7231 7.2443Z" fill="url(#paint0_linear_11368_13310)"/>
<path d="M10.7231 7.2443C10.6484 7.16857 10.5271 7.16857 10.4524 7.2443L7.74405 9.99309L6.55326 8.79367C6.47857 8.71794 6.35726 8.71794 6.28258 8.79367C6.20789 8.8694 6.20789 8.99199 6.28258 9.06753L7.60927 10.4037C7.6832 10.4784 7.80621 10.4784 7.88014 10.4037L10.7231 7.51815C10.798 7.44262 10.798 7.31983 10.7231 7.2443C10.6484 7.16857 10.798 7.31983 10.7231 7.2443Z" stroke="white"/>
<rect x="0.75" y="3.625" width="15.2703" height="10.4788" rx="2.69217" stroke="white" stroke-width="1.5"/>
<mask id="path-4-inside-1_11368_13310" fill="white">
<path fill-rule="evenodd" clip-rule="evenodd" d="M6.31711 1.5H16.203C17.2757 1.5 18.1452 2.36954 18.1452 3.44217V8.53659C18.1452 9.41187 17.5662 10.1519 16.7703 10.3946V6.31706C16.7703 4.416 15.2292 2.87489 13.3281 2.87489H4.4591C4.70179 2.079 5.44183 1.5 6.31711 1.5ZM2.91505 2.915C3.16877 1.26419 4.5953 0 6.31711 0H16.203C18.1041 0 19.6452 1.54111 19.6452 3.44217V8.53659C19.6452 10.2584 18.381 11.6849 16.7302 11.9386C16.4765 13.5895 15.0499 14.8536 13.3281 14.8536H3.44222C1.54116 14.8536 5.06283e-05 13.3125 5.06283e-05 11.4115V6.31706C5.06283e-05 4.59525 1.26424 3.16871 2.91505 2.915Z"/>
</mask>
<path d="M16.7703 10.3946H15.2703V12.4202L17.2078 11.8294L16.7703 10.3946ZM4.45904 2.87489L3.02427 2.43738L2.43346 4.37489H4.45904V2.87489ZM2.915 2.915L3.14286 4.3976L4.23045 4.23045L4.3976 3.14286L2.915 2.915ZM16.7301 11.9386L16.5023 10.4561L15.4147 10.6232L15.2476 11.7108L16.7301 11.9386ZM16.203 0H6.31706V3H16.203V0ZM19.6451 3.44217C19.6451 1.54111 18.104 0 16.203 0V3C16.4472 3 16.6451 3.19797 16.6451 3.44217H19.6451ZM19.6451 8.53659V3.44217H16.6451V8.53659H19.6451ZM17.2078 11.8294C18.6172 11.3996 19.6451 10.0901 19.6451 8.53659H16.6451C16.6451 8.73362 16.5151 8.90421 16.3328 8.95982L17.2078 11.8294ZM15.2703 6.31706V10.3946H18.2703V6.31706H15.2703ZM13.3281 4.37489C14.4007 4.37489 15.2703 5.24443 15.2703 6.31706H18.2703C18.2703 3.58757 16.0576 1.37489 13.3281 1.37489V4.37489ZM4.45904 4.37489H13.3281V1.37489H4.45904V4.37489ZM6.31706 0C4.76354 0 3.45403 1.028 3.02427 2.43738L5.89382 3.3124C5.94944 3.13001 6.12003 3 6.31706 3V0ZM6.31706 -1.5C3.84356 -1.5 1.79688 0.315652 1.43241 2.68715L4.3976 3.14286C4.54055 2.21272 5.34695 1.5 6.31706 1.5V-1.5ZM16.203 -1.5H6.31706V1.5H16.203V-1.5ZM21.1451 3.44217C21.1451 0.712686 18.9325 -1.5 16.203 -1.5V1.5C17.2756 1.5 18.1451 2.36954 18.1451 3.44217H21.1451ZM21.1451 8.53659V3.44217H18.1451V8.53659H21.1451ZM16.958 13.4212C19.3295 13.0568 21.1451 11.0101 21.1451 8.53659H18.1451C18.1451 9.5067 17.4324 10.3131 16.5023 10.4561L16.958 13.4212ZM15.2476 11.7108C15.1046 12.6409 14.2982 13.3536 13.3281 13.3536V16.3536C15.8016 16.3536 17.8483 14.538 18.2127 12.1665L15.2476 11.7108ZM13.3281 13.3536H3.44217V16.3536H13.3281V13.3536ZM3.44217 13.3536C2.36954 13.3536 1.5 12.4841 1.5 11.4115H-1.5C-1.5 14.141 0.712686 16.3536 3.44217 16.3536V13.3536ZM1.5 11.4115V6.31706H-1.5V11.4115H1.5ZM1.5 6.31706C1.5 5.34695 2.21272 4.54055 3.14286 4.3976L2.68715 1.43241C0.315651 1.79688 -1.5 3.84356 -1.5 6.31706H1.5Z" fill="white" mask="url(#path-4-inside-1_11368_13310)"/>
<defs>
<linearGradient id="paint0_linear_11368_13310" x1="7.69795" y1="4.74063" x2="5.58531" y2="9.7879" gradientUnits="userSpaceOnUse">
<stop stop-color="#4F00B5"/>
<stop offset="1" stop-color="#7D2A86"/>
</linearGradient>
</defs>
</svg>
