<svg width="16" height="14" viewBox="0 0 16 14" fill="none" xmlns="http://www.w3.org/2000/svg">
<path fill-rule="evenodd" clip-rule="evenodd" d="M12.7687 6.82165C14.3829 5.37767 14.5151 2.90502 13.0639 1.2988C11.733 -0.174363 9.50529 -0.424629 7.87779 0.716212C6.10361 -0.529708 3.65036 -0.108574 2.39826 1.6568C1.24935 3.27669 1.49983 5.4957 2.98126 6.82161C1.14055 7.78713 -0.00829348 9.69064 4.50871e-05 11.7611V13.4403C4.50871e-05 13.7494 0.251883 14 0.562553 14H15.1874C15.4981 14 15.75 13.7494 15.75 13.4403V11.7611C15.7583 9.69064 14.6094 7.78713 12.7687 6.82165ZM10.125 1.12654C11.6761 1.12484 12.9349 2.37466 12.9366 3.9181C12.9379 5.01887 12.2896 6.0178 11.2809 6.4696C11.2452 6.48575 11.2095 6.50075 11.1734 6.51589L11.1734 6.5159L11.1733 6.51593L11.1504 6.52558C11.0116 6.5813 10.8684 6.62564 10.7223 6.65824C10.7065 6.66173 10.6906 6.66431 10.6746 6.66691C10.6623 6.66891 10.6499 6.67092 10.6374 6.67336C10.4742 6.70449 10.3086 6.72115 10.1424 6.72318C10.0676 6.72318 9.9922 6.71757 9.91738 6.71088H9.91737C9.88926 6.71088 9.86112 6.71088 9.83301 6.70527C9.51331 6.66782 9.20231 6.57661 8.91333 6.43549C8.90771 6.43284 8.90161 6.43173 8.89554 6.43063C8.89008 6.42964 8.88463 6.42865 8.87958 6.42654C8.86506 6.41961 8.85054 6.4129 8.83613 6.40624C8.7947 6.38709 8.75417 6.36836 8.71702 6.34593C8.7193 6.3431 8.72114 6.34014 8.72298 6.33718C8.72479 6.33427 8.7266 6.33136 8.72882 6.32858C8.98676 5.99878 9.19011 5.63015 9.33124 5.23657L9.34868 5.18954C9.41285 5.00155 9.46268 4.80904 9.49775 4.61358C9.50233 4.58784 9.50597 4.56299 9.50995 4.53579L9.51126 4.52683C9.54379 4.32786 9.5609 4.12672 9.56245 3.92512C9.56083 3.72392 9.54373 3.52314 9.51126 3.32453L9.50713 3.29756L9.50712 3.29751L9.5071 3.2974C9.50415 3.27804 9.50122 3.25882 9.49775 3.23778C9.46268 3.04235 9.41285 2.84981 9.34868 2.66182L9.33124 2.61479C9.19011 2.22121 8.98672 1.85258 8.72882 1.52278C8.72655 1.51996 8.72471 1.517 8.72287 1.51404C8.72106 1.51113 8.71925 1.50822 8.71702 1.50543C9.14437 1.25737 9.63021 1.12658 10.125 1.12654ZM5.61043 1.12655C4.06117 1.13052 2.8085 2.38346 2.81249 3.92507C2.81378 5.02376 3.46105 6.02011 4.46742 6.47223L4.50449 6.48733L4.50456 6.48736L4.50465 6.4874C4.53805 6.50102 4.57176 6.51476 4.60578 6.52821C4.74134 6.58177 4.88089 6.6248 5.02314 6.65694C5.04667 6.66215 5.07072 6.66586 5.09476 6.66958L5.09482 6.66959C5.10695 6.67146 5.11908 6.67334 5.13114 6.6754C5.28387 6.70371 5.43875 6.71925 5.59408 6.72187H5.65594C5.81128 6.71922 5.96615 6.70371 6.11888 6.6754C6.13094 6.67334 6.14307 6.67146 6.1552 6.66959L6.15526 6.66958C6.1793 6.66586 6.20335 6.66215 6.22689 6.65694C6.36914 6.6248 6.50865 6.58177 6.64425 6.52821C6.69091 6.51198 6.73706 6.49293 6.78261 6.47223C7.06908 6.34288 7.33167 6.16654 7.55941 5.95058C7.59201 5.91926 7.62408 5.88791 7.65559 5.85544C7.75219 5.75472 7.84131 5.64718 7.92222 5.53361C7.94047 5.50803 7.95748 5.48122 7.9744 5.45455L7.97441 5.45454L7.99252 5.42614C8.07106 5.30591 8.14008 5.17977 8.19894 5.04889C8.20816 5.02795 8.21595 5.00676 8.22371 4.98565L8.22371 4.98564L8.22371 4.98563L8.22375 4.98554C8.22779 4.97453 8.23183 4.96355 8.23606 4.95263C8.29538 4.80764 8.34205 4.65783 8.37557 4.50487C8.37779 4.49537 8.37912 4.48588 8.38046 4.47629C8.3815 4.46891 8.38254 4.46148 8.38401 4.45393C8.45526 4.10639 8.45526 3.7481 8.38401 3.40056C8.38255 3.39305 8.38152 3.38564 8.38049 3.3783C8.37914 3.36867 8.37781 3.35915 8.37557 3.34963C8.34202 3.19667 8.29535 3.04685 8.23606 2.90186C8.23181 2.89091 8.22776 2.87988 8.2237 2.86883L8.22365 2.86869C8.21592 2.84764 8.20816 2.8265 8.19894 2.80561C8.14015 2.67452 8.07113 2.54819 7.99252 2.4278L7.97498 2.40027C7.95788 2.37331 7.94067 2.34619 7.92222 2.32032C7.84127 2.20678 7.75219 2.09921 7.65559 1.9985C7.62411 1.96603 7.59204 1.93471 7.55941 1.90336C7.0353 1.40315 6.33664 1.12468 5.61043 1.12655ZM10.125 12.8806H1.12512V11.7612C1.11688 9.86447 2.31783 8.17105 4.11645 7.54314C5.08201 7.94315 6.1681 7.94315 7.1337 7.54314C7.3215 7.61142 7.50452 7.692 7.68157 7.78438C7.78263 7.83611 7.87697 7.89409 7.97329 7.95329L7.97329 7.95329L8.01907 7.98139L8.05868 8.00582L8.05871 8.00584C8.11885 8.04285 8.17911 8.07994 8.23676 8.12077C8.34533 8.19745 8.4477 8.28085 8.54839 8.36648C8.61309 8.42246 8.67719 8.47841 8.73793 8.5344C8.83074 8.6217 8.91792 8.71405 9.00174 8.80867C9.06192 8.87695 9.12042 8.94635 9.17612 9.01801C9.24982 9.11203 9.32012 9.20832 9.38538 9.30736C9.44164 9.39132 9.4917 9.47863 9.54117 9.56596C9.59743 9.66222 9.64918 9.75851 9.69641 9.8587C9.74367 9.95889 9.7853 10.0686 9.82577 10.1755L9.84836 10.2342L9.84836 10.2342C9.87671 10.3074 9.90506 10.3807 9.92814 10.4554C9.96753 10.5852 9.99508 10.7195 10.0226 10.8539C10.0285 10.8815 10.035 10.9089 10.0415 10.9363L10.0415 10.9364C10.0536 10.9878 10.0658 11.0392 10.0738 11.0917C10.1071 11.3133 10.1242 11.5371 10.125 11.7612V12.8806ZM11.25 12.8805H14.6249H14.625V11.7611C14.6333 9.86343 13.4313 8.16925 11.6314 7.54196C11.4847 7.60191 11.3344 7.65278 11.1814 7.6942C11.1575 7.70092 11.1337 7.7068 11.1101 7.71264C11.1002 7.71506 11.0904 7.71748 11.0807 7.71995C10.9641 7.74904 10.8459 7.77275 10.7263 7.79101C10.7127 7.79316 10.6992 7.79541 10.6856 7.79765C10.6533 7.80301 10.621 7.80834 10.5885 7.8123C10.4414 7.83001 10.2934 7.83955 10.1452 7.84083H10.1143C9.95418 7.83922 9.79433 7.82801 9.6356 7.80725H9.61253C9.74077 7.93486 9.86285 8.06978 9.97534 8.20857L9.97926 8.21362C10.0891 8.3472 10.1925 8.48544 10.2892 8.62836L10.3112 8.66027C10.6032 9.09744 10.8314 9.57364 10.989 10.0747C10.9965 10.099 11.0035 10.1238 11.0104 10.1486C11.0148 10.1642 11.0193 10.1799 11.0238 10.1956C11.0595 10.3179 11.0908 10.4415 11.1178 10.5661C11.129 10.6183 11.1397 10.6704 11.1498 10.7223C11.1735 10.8437 11.1909 10.9663 11.2061 11.09C11.2083 11.1102 11.211 11.1303 11.2136 11.1505C11.2175 11.1805 11.2214 11.2104 11.2241 11.2406C11.2398 11.4124 11.25 11.5859 11.25 11.7611V12.8805Z" fill="white"/>
</svg>
