<svg width="20" height="20" viewBox="0 0 20 20" fill="none" xmlns="http://www.w3.org/2000/svg">
<path fill-rule="evenodd" clip-rule="evenodd" d="M0 8.23818C0 3.88544 4.48678 0.34375 10.0008 0.34375C15.5148 0.34375 20 3.88544 20 8.23766C20 12.5909 15.5158 16.1316 10.0072 16.1316H10.0052C9.57341 16.1018 9.12923 16.2208 8.79635 16.5052C7.63026 17.5033 6.20251 18.5371 4.77144 19.3054C4.53168 19.4342 4.26646 19.1924 4.34911 18.9331C4.69159 17.8588 4.87472 16.6879 4.6736 15.5659C4.59319 15.1201 4.3263 14.73 3.93799 14.4951C1.43561 12.9759 0 10.6952 0 8.23818ZM5.92407 9.95362C6.5876 9.95362 7.12549 9.41572 7.12549 8.7522C7.12549 8.08867 6.5876 7.55078 5.92407 7.55078C5.26055 7.55078 4.72266 8.08867 4.72266 8.7522C4.72266 9.41572 5.26055 9.95362 5.92407 9.95362ZM11.2466 8.7522C11.2466 9.41572 10.7087 9.95362 10.0452 9.95362C9.38164 9.95362 8.84375 9.41572 8.84375 8.7522C8.84375 8.08867 9.38164 7.55078 10.0452 7.55078C10.7087 7.55078 11.2466 8.08867 11.2466 8.7522ZM14.1604 9.95362C14.8239 9.95362 15.3618 9.41572 15.3618 8.7522C15.3618 8.08867 14.8239 7.55078 14.1604 7.55078C13.4969 7.55078 12.959 8.08867 12.959 8.7522C12.959 9.41572 13.4969 9.95362 14.1604 9.95362Z" fill="white"/>
</svg>
