<svg width="12" height="16" viewBox="0 0 12 16" fill="none" xmlns="http://www.w3.org/2000/svg">
<path d="M10.6348 2.73992C9.62609 1.06417 7.83447 0.0403906 5.84215 0.00126562C5.7571 -0.000421875 5.6715 -0.000421875 5.58642 0.00126562C3.59412 0.0403906 1.8025 1.06417 0.793795 2.73992C-0.237248 4.45279 -0.265457 6.51029 0.718322 8.24376L4.83974 15.5058C4.84159 15.5091 4.84344 15.5123 4.84535 15.5155C5.02668 15.8189 5.35152 16 5.71435 16C6.07714 16 6.40198 15.8188 6.58328 15.5155C6.58519 15.5123 6.58704 15.5091 6.58889 15.5058L10.7103 8.24376C11.694 6.51029 11.6658 4.45279 10.6348 2.73992ZM5.71428 7.25001C4.42553 7.25001 3.37705 6.24067 3.37705 5.00001C3.37705 3.75936 4.42553 2.75001 5.71428 2.75001C7.00304 2.75001 8.05151 3.75936 8.05151 5.00001C8.05151 6.24067 7.00307 7.25001 5.71428 7.25001Z" fill="white"/>
</svg>
