<svg width="20" height="21" viewBox="0 0 20 21" fill="none" xmlns="http://www.w3.org/2000/svg">
<path d="M19 14.9861V6.40162C19 5.83882 18.7681 5.29906 18.3556 4.90105C17.943 4.50308 17.3835 4.27952 16.7999 4.27952H14.7458V3.1221C14.7458 2.5593 14.5141 2.01954 14.1015 1.62153C13.6891 1.22356 13.1295 1 12.546 1H3.20007C2.61659 1 2.057 1.22354 1.64437 1.62153C1.23195 2.01951 1 2.55926 1 3.1221V14.5986C1 15.1614 1.23193 15.701 1.64437 16.0989C2.05696 16.4969 2.61655 16.7205 3.20007 16.7205H5.25415V17.8781C5.25415 18.4409 5.48591 18.9805 5.89852 19.3785C6.31094 19.7764 6.87052 20 7.45404 20H13.8348C13.9671 20 14.0941 19.9494 14.1879 19.8592L18.8517 15.3607C18.8749 15.3333 18.895 15.3035 18.9117 15.2719C18.9715 15.1881 19.0024 15.0882 18.9998 14.9864L19 14.9861ZM2.00017 14.6003V3.12598C2.00017 2.81901 2.1266 2.52447 2.35155 2.30749C2.57669 2.09034 2.88186 1.96839 3.20012 1.96839H12.5451C12.8634 1.96839 13.1685 2.09034 13.3937 2.30749C13.6186 2.52447 13.7451 2.819 13.7451 3.12598V11.2562H11.2812C10.6977 11.2562 10.1381 11.4798 9.7255 11.8777C9.31291 12.2757 9.08113 12.8155 9.08113 13.3783V15.7559H3.20039C2.88214 15.7559 2.57696 15.6339 2.35183 15.417C2.12687 15.1998 2.00044 14.9054 2.00044 14.5985L2.00017 14.6003ZM13.0371 12.2227L10.082 15.0729V13.3772C10.082 13.0703 10.2084 12.7759 10.4336 12.5587C10.6585 12.3418 10.9637 12.2198 11.2821 12.2198L13.0371 12.2227ZM6.25414 17.8761V16.7187H9.5821C9.64802 16.7188 9.71341 16.7061 9.7741 16.681C9.83461 16.6569 9.88972 16.6215 9.9361 16.5769L14.5999 12.0801V12.0744C14.704 11.9724 14.7551 11.8308 14.7389 11.6885V5.2471H16.7999C17.1182 5.2471 17.4234 5.36905 17.6485 5.58604C17.8735 5.80319 17.9999 6.09755 17.9999 6.40453V14.5348H15.5299C14.9464 14.5348 14.3868 14.7583 13.9744 15.1563C13.5618 15.5543 13.33 16.094 13.33 16.6569V19.0344H7.45284C7.13459 19.0343 6.82959 18.912 6.60464 18.6948C6.37985 18.4775 6.2536 18.183 6.25395 17.876L6.25414 17.8761ZM17.2911 15.4985L14.3292 18.3555L14.329 16.6549C14.329 16.348 14.4554 16.0536 14.6805 15.8366C14.9055 15.6195 15.2107 15.4975 15.5289 15.4975L17.2911 15.4985Z" fill="white" stroke="white" stroke-width="0.5"/>
</svg>
