<svg width="18" height="21" viewBox="0 0 18 21" fill="none" xmlns="http://www.w3.org/2000/svg">
<path fill-rule="evenodd" clip-rule="evenodd" d="M16.5307 20.6994H0.822793C1.0722 20.6994 0 20.7991 0 19.8766V7.45994C0 6.96132 0.39897 6.63715 0.822793 6.63715H4.1389C4.58761 6.63715 4.96169 7.01107 4.96169 7.45994C4.96169 7.90865 4.58777 8.28273 4.1389 8.28273H1.64559V19.0289H15.7079V8.28273H13.2146C12.7659 8.28273 12.3918 7.90881 12.3918 7.45994C12.3918 7.01123 12.7657 6.63715 13.2146 6.63715L16.5307 6.63732C17.4531 6.63732 17.3535 7.70936 17.3535 7.46011V19.8768C17.3783 20.0015 17.2785 20.6996 16.5307 20.6996V20.6994ZM11.4692 4.74223L9.49943 2.74753V10.7261C9.49943 11.1999 9.12551 11.5738 8.67664 11.5738C8.22793 11.5738 7.85385 11.1999 7.85385 10.7261V2.74753L5.88422 4.74223C5.58508 5.04137 5.08627 5.04137 4.76227 4.74223C4.46313 4.44308 4.46313 3.91944 4.76227 3.62028L8.10327 0.229376C8.57704 -0.244398 9.12557 0.15459 9.20037 0.204506C9.20037 0.204506 9.22524 0.204506 9.22524 0.229376L12.5662 3.62028C12.8654 3.91943 12.8654 4.44308 12.5662 4.74223C12.2671 5.04155 11.7685 5.04155 11.4693 4.74223H11.4692Z" fill="#7665A7"/>
</svg>
