<svg width="26" height="24" viewBox="0 0 26 24" fill="none" xmlns="http://www.w3.org/2000/svg">
<path d="M5.15589e-05 21.4286C5.15589e-05 20.7466 0.273907 20.0925 0.761582 19.6102C1.24924 19.1281 1.91043 18.8571 2.59999 18.8571C3.28956 18.8571 3.95096 19.1281 4.43861 19.6102C4.92607 20.0925 5.20014 20.7466 5.20014 21.4286C5.20014 22.1106 4.92609 22.7647 4.43861 23.2468C3.95095 23.7291 3.28961 24 2.59999 24C1.91043 24 1.24924 23.7292 0.761582 23.2468C0.273923 22.7647 5.15589e-05 22.1106 5.15589e-05 21.4286ZM2.59994 5.14295C3.28951 5.14295 3.95091 4.8719 4.43856 4.38979C4.92602 3.90749 5.20009 3.25341 5.20009 2.57137C5.20009 1.88938 4.92604 1.23525 4.43856 0.753162C3.9509 0.270862 3.28956 0 2.59994 0C1.91038 0 1.24918 0.270846 0.76153 0.753162C0.273871 1.23526 0 1.88938 0 2.57137C0 3.25336 0.273856 3.90749 0.76153 4.38979C1.24919 4.87189 1.91038 5.14295 2.59994 5.14295ZM2.59994 14.5715V14.5713C3.28951 14.5713 3.95091 14.3005 4.43856 13.8181C4.92602 13.336 5.20009 12.6819 5.20009 11.9999C5.20009 11.3179 4.92604 10.6638 4.43856 10.1817C3.9509 9.69942 3.28956 9.42856 2.59994 9.42856C1.91038 9.42856 1.24918 9.6994 0.76153 10.1817C0.273871 10.6638 0 11.3179 0 11.9999C0 12.6819 0.273856 13.336 0.76153 13.8181C1.24919 14.3004 1.91038 14.5713 2.59994 14.5713V14.5715ZM11.2666 4.28581H24.2666C24.8858 4.28581 25.4581 3.95896 25.7679 3.42862C26.0774 2.89826 26.0774 2.24479 25.7679 1.71423C25.4581 1.18388 24.8858 0.857243 24.2666 0.857243H11.2666C10.6473 0.857243 10.0752 1.18389 9.76551 1.71423C9.45599 2.24474 9.45599 2.89826 9.76551 3.42862C10.0752 3.95897 10.6473 4.28581 11.2666 4.28581ZM11.2666 13.7144H24.2666C24.8858 13.7144 25.4581 13.3875 25.7679 12.8572C26.0774 12.3267 26.0774 11.6733 25.7679 11.1428C25.4581 10.6124 24.8858 10.2856 24.2666 10.2856H11.2666C10.6473 10.2856 10.0752 10.6124 9.76551 11.1428C9.45599 11.6733 9.45599 12.3266 9.76551 12.8572C10.0752 13.3875 10.6473 13.7144 11.2666 13.7144ZM11.2666 23.1429L24.2666 23.1427C24.8858 23.1427 25.4581 22.8161 25.7679 22.2857C26.0774 21.7552 26.0774 21.1017 25.7679 20.5713C25.4581 20.041 24.8858 19.7141 24.2666 19.7141H11.2666C10.6473 19.7141 10.0752 20.041 9.76551 20.5713C9.45599 21.1017 9.45599 21.7552 9.76551 22.2857C10.0752 22.8161 10.6473 23.1427 11.2666 23.1427V23.1429Z" fill="#7665A7"/>
</svg>
