<svg width="16" height="14" viewBox="0 0 16 14" fill="none" xmlns="http://www.w3.org/2000/svg">
<path fill-rule="evenodd" clip-rule="evenodd" d="M12.7687 6.82165C14.3829 5.37767 14.5151 2.90502 13.0639 1.2988C11.733 -0.174363 9.50529 -0.424629 7.87779 0.716212C6.10361 -0.529708 3.65036 -0.108574 2.39826 1.6568C1.24935 3.27669 1.49983 5.4957 2.98126 6.82161C1.14055 7.78713 -0.00829348 9.69064 4.50871e-05 11.7611V13.4403C4.50871e-05 13.7494 0.251883 14 0.562553 14H15.1874C15.4981 14 15.75 13.7494 15.75 13.4403V11.7611C15.7583 9.69064 14.6094 7.78713 12.7687 6.82165ZM10.1247 1.12647C11.6758 1.12476 12.9346 2.37458 12.9363 3.91803C12.9375 5.01879 12.2893 6.01773 11.2806 6.46952C11.2449 6.48567 11.2092 6.50068 11.1731 6.51582L11.1731 6.51583L11.173 6.51585L11.1501 6.52551C11.0113 6.58123 10.8681 6.62557 10.722 6.65817C10.7061 6.66165 10.6903 6.66423 10.6743 6.66683C10.662 6.66883 10.6496 6.67085 10.6371 6.67329C10.4739 6.70441 10.3083 6.72107 10.1421 6.7231C10.0673 6.7231 9.99189 6.71749 9.91708 6.7108H9.91707C9.88896 6.7108 9.86081 6.7108 9.8327 6.7052C9.513 6.66774 9.202 6.57654 8.91302 6.43542C8.9074 6.43276 8.90131 6.43165 8.89524 6.43055C8.88977 6.42956 8.88433 6.42858 8.87927 6.42646C8.86477 6.41954 8.85026 6.41283 8.83586 6.40618L8.83582 6.40616C8.7944 6.38702 8.75386 6.36828 8.71672 6.34585C8.71899 6.34302 8.72083 6.34006 8.72267 6.3371C8.72448 6.33419 8.72629 6.33128 8.72852 6.3285C8.98645 5.9987 9.18981 5.63008 9.33094 5.23649L9.34837 5.18946C9.41254 5.00148 9.46238 4.80896 9.49745 4.6135C9.50202 4.58776 9.50566 4.56291 9.50965 4.53571L9.51096 4.52676C9.54349 4.32778 9.56059 4.12664 9.56214 3.92505C9.56053 3.72384 9.54342 3.52307 9.51096 3.32445L9.50682 3.29748L9.50681 3.29743L9.50679 3.29732L9.50679 3.2973C9.50384 3.27795 9.50091 3.25873 9.49745 3.23771C9.46238 3.04228 9.41254 2.84973 9.34837 2.66175L9.33094 2.61472C9.18981 2.22113 8.98642 1.8525 8.72852 1.52271C8.72624 1.51988 8.7244 1.51692 8.72256 1.51396C8.72075 1.51105 8.71894 1.50814 8.71672 1.50536C9.14406 1.25729 9.62991 1.1265 10.1247 1.12647ZM5.61043 1.12655C4.06117 1.13052 2.8085 2.38346 2.81249 3.92507C2.81378 5.02376 3.46105 6.02011 4.46742 6.47223L4.50449 6.48733L4.50456 6.48736L4.50465 6.4874C4.53805 6.50102 4.57176 6.51476 4.60578 6.52821C4.74134 6.58177 4.88089 6.6248 5.02314 6.65694C5.04667 6.66215 5.07072 6.66586 5.09476 6.66958L5.09482 6.66959C5.10695 6.67146 5.11908 6.67334 5.13114 6.6754C5.28387 6.70371 5.43875 6.71925 5.59408 6.72187H5.65594C5.81128 6.71922 5.96615 6.70371 6.11888 6.6754C6.13094 6.67334 6.14307 6.67146 6.1552 6.66959L6.15526 6.66958C6.1793 6.66586 6.20335 6.66215 6.22689 6.65694C6.36914 6.6248 6.50865 6.58177 6.64425 6.52821C6.69091 6.51198 6.73706 6.49293 6.78261 6.47223C7.06908 6.34288 7.33167 6.16654 7.55941 5.95058C7.59201 5.91926 7.62408 5.88791 7.65559 5.85544C7.75219 5.75472 7.84131 5.64718 7.92222 5.53361C7.94047 5.50803 7.95748 5.48122 7.9744 5.45455L7.97441 5.45454L7.99252 5.42614C8.07106 5.30591 8.14008 5.17977 8.19894 5.04889C8.20816 5.02795 8.21595 5.00676 8.22371 4.98565L8.22371 4.98564L8.22371 4.98563L8.22375 4.98554C8.22779 4.97453 8.23183 4.96355 8.23606 4.95263C8.29538 4.80764 8.34205 4.65783 8.37557 4.50487C8.37779 4.49537 8.37912 4.48588 8.38046 4.47629C8.3815 4.46891 8.38254 4.46148 8.38401 4.45393C8.45526 4.10639 8.45526 3.7481 8.38401 3.40056C8.38255 3.39305 8.38152 3.38564 8.38049 3.3783C8.37914 3.36867 8.37781 3.35915 8.37557 3.34963C8.34202 3.19667 8.29535 3.04685 8.23606 2.90186C8.23181 2.89091 8.22776 2.87988 8.2237 2.86883L8.22365 2.86869C8.21592 2.84764 8.20816 2.8265 8.19894 2.80561C8.14015 2.67452 8.07113 2.54819 7.99252 2.4278L7.97498 2.40027C7.95788 2.37331 7.94067 2.34619 7.92222 2.32032C7.84127 2.20678 7.75219 2.09921 7.65559 1.9985C7.62411 1.96603 7.59204 1.93471 7.55941 1.90336C7.0353 1.40315 6.33664 1.12468 5.61043 1.12655ZM10.1249 12.8807H1.12496V11.7612C1.11672 9.86455 2.31768 8.17113 4.1163 7.54321C5.08186 7.94323 6.16795 7.94323 7.13355 7.54321C7.32134 7.61149 7.50436 7.69207 7.68142 7.78446C7.78247 7.83618 7.87682 7.89417 7.97313 7.95337L7.97314 7.95337L8.01892 7.98147L8.05852 8.0059L8.05856 8.00592C8.11869 8.04293 8.17896 8.08001 8.23661 8.12085C8.34518 8.19753 8.44755 8.28093 8.54823 8.36656C8.61293 8.42254 8.67704 8.47849 8.73778 8.53447C8.83059 8.62177 8.91777 8.71413 9.00158 8.80874C9.06177 8.87703 9.12027 8.94642 9.17597 9.01808C9.24966 9.11211 9.31996 9.2084 9.38522 9.30744C9.44148 9.3914 9.49155 9.4787 9.54102 9.56604C9.59728 9.66229 9.64902 9.75858 9.69625 9.85877C9.74352 9.95897 9.78514 10.0687 9.82562 10.1756L9.84821 10.2342L9.84821 10.2343C9.87656 10.3075 9.90491 10.3808 9.92799 10.4554C9.96737 10.5853 9.99493 10.7196 10.0225 10.8539C10.0283 10.8816 10.0348 10.909 10.0413 10.9364L10.0413 10.9364C10.0535 10.9879 10.0656 11.0393 10.0737 11.0918C10.107 11.3134 10.1241 11.5371 10.1249 11.7612V12.8807ZM11.2497 12.8806H14.6246H14.6247V11.7612C14.633 9.86346 13.431 8.16928 11.631 7.54199C11.4844 7.60194 11.3341 7.65281 11.1811 7.69423C11.1572 7.70095 11.1334 7.70683 11.1098 7.71267C11.0999 7.71509 11.0901 7.71751 11.0804 7.71998C10.9638 7.74907 10.8456 7.77278 10.726 7.79105C10.7124 7.79319 10.6988 7.79544 10.6853 7.79768C10.653 7.80304 10.6207 7.80838 10.5882 7.81233C10.4411 7.83004 10.2931 7.83958 10.1449 7.84086H10.114C9.95388 7.83925 9.79403 7.82804 9.6353 7.80728H9.61223C9.74047 7.93489 9.86255 8.06981 9.97504 8.2086L9.97896 8.21365C10.0888 8.34723 10.1922 8.48547 10.2889 8.62839L10.3109 8.6603C10.6029 9.09747 10.8311 9.57367 10.9887 10.0747C10.9962 10.099 11.0032 10.1238 11.0101 10.1486C11.0145 10.1643 11.019 10.18 11.0235 10.1956C11.0591 10.318 11.0905 10.4415 11.1175 10.5661C11.1287 10.6184 11.1394 10.6704 11.1495 10.7223C11.1732 10.8438 11.1906 10.9663 11.2058 11.09C11.208 11.1102 11.2107 11.1304 11.2133 11.1505C11.2172 11.1805 11.2211 11.2104 11.2238 11.2406C11.2395 11.4124 11.2497 11.5859 11.2497 11.7611V12.8806Z" fill="white"/>
</svg>
