<svg width="40" height="40" viewBox="0 0 40 40" fill="none" xmlns="http://www.w3.org/2000/svg">
<rect width="40" height="40" rx="14" fill="#4119B5"/>
<path d="M10.1148 16.2331C10.1644 16.0618 10.2135 15.8903 10.2637 15.7193C10.4468 15.0968 10.7732 14.5598 11.2173 14.0848C11.5142 13.7673 11.8638 13.5167 12.2294 13.2975C12.7613 12.9787 13.4476 13.0913 13.8439 13.6031C14.2778 14.1637 14.7009 14.7329 15.1281 15.2987C15.3745 15.6247 15.6181 15.9532 15.8658 16.2783C16.3072 16.8577 16.2363 17.5809 15.6686 18.0483C15.3112 18.3426 14.9309 18.6092 14.5585 18.8848C14.4547 18.9616 14.3421 19.0265 14.2334 19.0968C14.6356 20.1935 15.0873 21.2277 15.7368 22.1663C16.7397 23.6154 17.7696 24.4478 18.8853 25.2563C19.1907 25.0258 19.5001 24.7909 19.8107 24.5577C19.968 24.4399 20.1234 24.3198 20.2855 24.2084C20.7651 23.8796 21.3214 23.868 21.7851 24.2122C21.9651 24.3457 22.1027 24.541 22.2409 24.7223C22.8529 25.525 23.4553 26.335 24.0673 27.1376C24.2413 27.3661 24.3095 27.6259 24.3494 27.8993C24.3328 28.0147 24.3161 28.1301 24.2995 28.2455C24.2166 28.393 24.1575 28.5619 24.046 28.6841C23.695 29.0696 23.2699 29.369 22.8002 29.5934C21.936 30.0058 21.036 30.1137 20.0963 29.8726C19.0911 29.6145 18.1691 29.1782 17.299 28.627C16.6158 28.1944 15.9845 27.6925 15.3922 27.1448C14.6491 26.4576 13.9686 25.7111 13.3541 24.9085C12.7582 24.1301 12.1902 23.3326 11.6808 22.4947C11.1007 21.5407 10.5957 20.5541 10.2858 19.4775C10.1063 18.8544 9.99818 18.2214 10 17.5716C10.0006 17.3893 10.0003 17.2065 10.0006 17.0242C10.0387 16.7607 10.077 16.4968 10.1147 16.2331L10.1148 16.2331Z" fill="#A98BFF"/>
<path d="M24.3495 9C21.2341 9 18.6992 11.3757 18.6992 14.2955C18.6992 15.6387 19.2366 16.9176 20.2136 17.9031L19.9896 18.3475C19.7533 18.8159 19.8238 19.3743 20.1696 19.77L20.1862 19.7887C20.4326 20.0599 20.7849 20.2152 21.1522 20.2152C21.3091 20.2152 21.4629 20.1876 21.6092 20.1329L23.3076 19.5006C23.6492 19.5604 23.9998 19.5907 24.3497 19.5907C27.4651 19.5907 30 17.215 30 14.2952C29.9998 11.3757 27.4651 9.00014 24.3497 9.00014L24.3495 9ZM20.7094 18.7048L21.2058 17.7191L21.1232 17.6505C20.0942 16.7949 19.5043 15.5722 19.5043 14.2953C19.5043 11.8159 21.6777 9.79821 24.3497 9.79821C27.0214 9.79821 29.1952 11.8154 29.1952 14.2953C29.1952 16.7748 27.0217 18.7925 24.3497 18.7925C23.9882 18.7925 23.6276 18.7553 23.278 18.6818L23.2391 18.6736L21.3267 19.3854C21.2707 19.4063 21.2121 19.4168 21.1527 19.4168C21.0126 19.4168 20.8786 19.3573 20.7843 19.2543C20.6466 19.1026 20.6175 18.887 20.7093 18.705L20.7094 18.7048Z" fill="#A98BFF"/>
<path d="M23.533 16.2811H24.6658V17.3713H23.533V16.2811ZM22.1455 13.5648C22.1759 12.848 22.4281 12.3399 22.902 12.0406C23.201 11.8495 23.5685 11.7539 24.0043 11.7539C24.5771 11.7539 25.0522 11.8897 25.4298 12.1613C25.81 12.433 26 12.8354 26 13.3686C26 13.6955 25.9177 13.9709 25.7529 14.1948C25.6566 14.3306 25.4716 14.5041 25.1979 14.7154L24.9281 14.9229C24.7811 15.0361 24.6835 15.1681 24.6354 15.319C24.6049 15.4146 24.5885 15.563 24.5859 15.7642H23.5596C23.5748 15.3392 23.6153 15.0461 23.6812 14.8852C23.7471 14.7217 23.9169 14.5343 24.1906 14.3231L24.4681 14.108C24.5593 14.0401 24.6328 13.9659 24.6886 13.8854C24.7899 13.7471 24.8406 13.5949 24.8406 13.4289C24.8406 13.2378 24.7836 13.0643 24.6696 12.9083C24.5581 12.7499 24.3528 12.6707 24.0538 12.6707C23.7598 12.6707 23.5507 12.7675 23.4265 12.9611C23.3049 13.1548 23.2441 13.356 23.2441 13.5648H22.1455Z" fill="#A98BFF"/>
</svg>
