<svg width="36" height="36" viewBox="0 0 36 36" fill="none" xmlns="http://www.w3.org/2000/svg">
<path d="M9.60783 12.2503C9.52865 12.2395 9.446 12.2395 9.36682 12.2503C9.14109 12.2829 3.828 13.0733 0.411498 16.6718C0.255916 16.835 0.171875 17.0452 0.171875 17.2692V25.672C0.171875 29.8012 5.44914 33.9864 9.23033 35.1688C9.31576 35.1952 9.40154 35.2077 9.4887 35.2077C9.57586 35.2077 9.66304 35.1938 9.74708 35.1688C13.5293 33.9863 18.8038 29.8026 18.8038 25.672V17.2692C18.8038 17.0452 18.7183 16.8368 18.5672 16.6718C15.1468 13.0732 9.83241 12.2829 9.60837 12.2503H9.60783ZM17.0709 25.6721C17.0709 28.8227 12.6042 32.3389 9.48764 33.4263C6.36976 32.3386 1.90437 28.8227 1.90437 25.6721V17.6252C4.64271 14.9401 8.73613 14.1184 9.48764 13.9878C10.2437 14.117 14.3246 14.9321 17.0709 17.6252V25.6721Z" fill="#AE9DE2"/>
<path d="M3.20312 22.3128H8.9427V15.4297C7.64834 15.7395 5.12328 16.525 3.20312 18.1912V22.3128Z" fill="#AE9DE2"/>
<path d="M32.6133 0.164062H3.87589C2.17702 0.164062 0.796875 1.54732 0.796875 3.24308V14.2565C1.46435 13.7353 2.15818 13.2935 2.84754 12.9122L2.84861 6.73518H18.13H33.6388L33.6368 20.4365C33.6368 21.0012 33.1764 21.4604 32.6117 21.4604H20.3376V23.5142H32.6117C34.3092 23.5142 35.6907 22.131 35.6907 20.4352V3.24291C35.6921 1.54679 34.3108 0.164062 32.6133 0.164062ZM33.6388 4.91075H2.84861V3.24308C2.84861 2.6784 3.31084 2.21926 3.87554 2.21926H32.6129C33.1776 2.21926 33.6381 2.67837 33.6381 3.24308L33.6388 4.91075Z" fill="#AE9DE2"/>
<path d="M15.7722 25.6714V23.3984H10.0312V31.7985C12.7991 30.4851 15.7722 27.6662 15.7722 25.6714Z" fill="#AE9DE2"/>
<path d="M22.7536 15.9615L22.7068 14.9332L23.5668 15.4848L23.8659 14.98L22.9592 14.5126L23.8659 14.0452L23.5668 13.5311L22.7068 14.0826L22.7536 13.0543H22.1646L22.2114 14.0826L21.342 13.5311L21.0522 14.0452L21.959 14.5126L21.0522 14.98L21.342 15.4848L22.2114 14.9332L22.1646 15.9615H22.7536ZM26.0308 15.9615L25.984 14.9332L26.844 15.4848L27.1432 14.98L26.2364 14.5126L27.1432 14.0452L26.844 13.5311L25.984 14.0826L26.0308 13.0543H25.4419L25.4886 14.0826L24.6192 13.5311L24.3295 14.0452L25.2362 14.5126L24.3295 14.98L24.6192 15.4848L25.4886 14.9332L25.4419 15.9615H26.0308ZM29.308 15.9615L29.2612 14.9332L30.1212 15.4848L30.4204 14.98L29.5136 14.5126L30.4204 14.0452L30.1212 13.5311L29.2612 14.0826L29.308 13.0543H28.7191L28.7658 14.0826L27.8965 13.5311L27.6067 14.0452L28.5134 14.5126L27.6067 14.98L27.8965 15.4848L28.7658 14.9332L28.7191 15.9615H29.308Z" fill="#AE9DE2"/>
</svg>
