<svg width="11" height="11" viewBox="0 0 11 11" fill="none" xmlns="http://www.w3.org/2000/svg">
<mask id="path-1-inside-1_1205_1691" fill="white">
<path d="M6.49969 5.98482L4.99979 4.9621V2.87879C4.99979 2.66932 4.81355 2.5 4.58315 2.5C4.35274 2.5 4.1665 2.66932 4.1665 2.87879V5.15151C4.1665 5.27082 4.22817 5.38334 4.33316 5.45455L5.99969 6.59091C6.07468 6.64204 6.16219 6.66667 6.24926 6.66667C6.37633 6.66667 6.50133 6.61477 6.583 6.51477C6.72135 6.3477 6.68385 6.11021 6.49969 5.98482Z"/>
</mask>
<path d="M6.49969 5.98482L4.99979 4.9621V2.87879C4.99979 2.66932 4.81355 2.5 4.58315 2.5C4.35274 2.5 4.1665 2.66932 4.1665 2.87879V5.15151C4.1665 5.27082 4.22817 5.38334 4.33316 5.45455L5.99969 6.59091C6.07468 6.64204 6.16219 6.66667 6.24926 6.66667C6.37633 6.66667 6.50133 6.61477 6.583 6.51477C6.72135 6.3477 6.68385 6.11021 6.49969 5.98482Z" fill="white"/>
<path d="M6.49969 5.98482L5.65465 7.22414L5.6555 7.22472L6.49969 5.98482ZM4.99979 4.9621H3.49979V5.75482L4.15475 6.20141L4.99979 4.9621ZM4.33316 5.45455L5.17821 4.21523L5.17516 4.21316L4.33316 5.45455ZM5.99969 6.59091L6.84479 5.35163L6.84474 5.3516L5.99969 6.59091ZM6.583 6.51477L5.4277 5.55801L5.42121 5.56594L6.583 6.51477ZM7.34473 4.7455L5.84483 3.72278L4.15475 6.20141L5.65465 7.22414L7.34473 4.7455ZM6.49979 4.9621V2.87879H3.49979V4.9621H6.49979ZM6.49979 2.87879C6.49979 1.70965 5.50434 1 4.58315 1V4C4.12276 4 3.49979 3.62899 3.49979 2.87879H6.49979ZM4.58315 1C3.66195 1 2.6665 1.70965 2.6665 2.87879H5.6665C5.6665 3.62899 5.04354 4 4.58315 4V1ZM2.6665 2.87879V5.15151H5.6665V2.87879H2.6665ZM2.6665 5.15151C2.6665 5.80164 3.00317 6.36494 3.49116 6.69593L5.17516 4.21316C5.45317 4.40173 5.6665 4.74001 5.6665 5.15151H2.6665ZM3.48811 6.69386L5.15464 7.83022L6.84474 5.3516L5.17821 4.21524L3.48811 6.69386ZM5.1546 7.83019C5.49537 8.06257 5.88155 8.16667 6.24926 8.16667V5.16667C6.44284 5.16667 6.65399 5.22152 6.84479 5.35163L5.1546 7.83019ZM6.24926 8.16667C6.77014 8.16667 7.34428 7.95398 7.74478 7.46359L5.42121 5.56594C5.65837 5.27556 5.98253 5.16667 6.24926 5.16667V8.16667ZM7.73827 7.47151C8.46954 6.58849 8.22051 5.34178 7.34388 4.74492L5.6555 7.22472C5.14718 6.87863 4.97316 6.10692 5.42772 5.55803L7.73827 7.47151Z" fill="white" mask="url(#path-1-inside-1_1205_1691)"/>
<mask id="path-3-inside-2_1205_1691" fill="white">
<path d="M5.5 0C2.46712 0 0 2.46712 0 5.5C0 8.53288 2.46712 11 5.5 11C8.53288 11 11 8.53288 11 5.5C11 2.46712 8.53288 0 5.5 0ZM5.5 10.148C2.93745 10.148 0.852049 8.06255 0.852049 5.5C0.852049 2.93745 2.93745 0.852049 5.5 0.852049C8.06298 0.852049 10.148 2.93745 10.148 5.5C10.148 8.06255 8.06255 10.148 5.5 10.148Z"/>
</mask>
<path d="M5.5 0C2.46712 0 0 2.46712 0 5.5C0 8.53288 2.46712 11 5.5 11C8.53288 11 11 8.53288 11 5.5C11 2.46712 8.53288 0 5.5 0ZM5.5 10.148C2.93745 10.148 0.852049 8.06255 0.852049 5.5C0.852049 2.93745 2.93745 0.852049 5.5 0.852049C8.06298 0.852049 10.148 2.93745 10.148 5.5C10.148 8.06255 8.06255 10.148 5.5 10.148Z" fill="white"/>
<path d="M5.5 -1.5C1.63869 -1.5 -1.5 1.63869 -1.5 5.5H1.5C1.5 3.29554 3.29554 1.5 5.5 1.5V-1.5ZM-1.5 5.5C-1.5 9.36131 1.63869 12.5 5.5 12.5V9.5C3.29554 9.5 1.5 7.70446 1.5 5.5H-1.5ZM5.5 12.5C9.36131 12.5 12.5 9.36131 12.5 5.5H9.5C9.5 7.70446 7.70446 9.5 5.5 9.5V12.5ZM12.5 5.5C12.5 1.63869 9.36131 -1.5 5.5 -1.5V1.5C7.70446 1.5 9.5 3.29554 9.5 5.5H12.5ZM5.5 8.64795C3.76588 8.64795 2.35205 7.23412 2.35205 5.5H-0.647951C-0.647951 8.89098 2.10902 11.648 5.5 11.648V8.64795ZM2.35205 5.5C2.35205 3.76588 3.76588 2.35205 5.5 2.35205V-0.647951C2.10902 -0.647951 -0.647951 2.10902 -0.647951 5.5H2.35205ZM5.5 2.35205C7.23446 2.35205 8.64795 3.76579 8.64795 5.5H11.648C11.648 2.10911 8.8915 -0.647951 5.5 -0.647951V2.35205ZM8.64795 5.5C8.64795 7.23412 7.23412 8.64795 5.5 8.64795V11.648C8.89098 11.648 11.648 8.89098 11.648 5.5H8.64795Z" fill="white" mask="url(#path-3-inside-2_1205_1691)"/>
</svg>
