<svg width="10" height="14" viewBox="0 0 10 14" fill="none" xmlns="http://www.w3.org/2000/svg">
<path d="M9.30542 2.39743C8.42283 0.93115 6.85516 0.0353418 5.11188 0.00110742C5.03746 -0.00036914 4.96256 -0.00036914 4.88811 0.00110742C3.14486 0.0353418 1.57719 0.93115 0.694571 2.39743C-0.207592 3.89619 -0.232275 5.6965 0.628532 7.21329L4.23477 13.5676C4.23639 13.5704 4.23801 13.5732 4.23968 13.576C4.39835 13.8415 4.68258 14 5.00005 14C5.31749 14 5.60173 13.8415 5.76037 13.576C5.76204 13.5732 5.76366 13.5704 5.76528 13.5676L9.37152 7.21329C10.2323 5.6965 10.2076 3.89619 9.30542 2.39743ZM5 6.34376C3.87234 6.34376 2.95492 5.46058 2.95492 4.37501C2.95492 3.28944 3.87234 2.40626 5 2.40626C6.12766 2.40626 7.04507 3.28944 7.04507 4.37501C7.04507 5.46058 6.12769 6.34376 5 6.34376Z" fill="#7665A7"/>
</svg>
