<svg width="20" height="19" viewBox="0 0 20 19" fill="none" xmlns="http://www.w3.org/2000/svg">
<mask id="path-1-outside-1_1376_11" maskUnits="userSpaceOnUse" x="13" y="1" width="7" height="7" fill="black">
<rect fill="white" x="13" y="1" width="7" height="7"/>
<path d="M18.8064 5.23974C19.0643 5.23974 19.2734 5.03063 19.2734 4.77269C19.2734 4.51475 19.0643 4.30565 18.8064 4.30565H17.157V2.51434C17.157 2.23028 16.9267 2 16.6426 2C16.3586 2 16.1283 2.23028 16.1283 2.51434V4.30565H14.467C14.2091 4.30565 14 4.51475 14 4.77269C14 5.03063 14.2091 5.23974 14.467 5.23974H16.1283V7.12564C16.1283 7.4097 16.3586 7.63998 16.6426 7.63998C16.9267 7.63998 17.157 7.4097 17.157 7.12564V5.23974H18.8064Z"/>
</mask>
<path d="M18.8064 5.23974C19.0643 5.23974 19.2734 5.03063 19.2734 4.77269C19.2734 4.51475 19.0643 4.30565 18.8064 4.30565H17.157V2.51434C17.157 2.23028 16.9267 2 16.6426 2C16.3586 2 16.1283 2.23028 16.1283 2.51434V4.30565H14.467C14.2091 4.30565 14 4.51475 14 4.77269C14 5.03063 14.2091 5.23974 14.467 5.23974H16.1283V7.12564C16.1283 7.4097 16.3586 7.63998 16.6426 7.63998C16.9267 7.63998 17.157 7.4097 17.157 7.12564V5.23974H18.8064Z" fill="white"/>
<path d="M17.157 4.30565H16.857V4.60565H17.157V4.30565ZM16.1283 4.30565V4.60565H16.4283V4.30565H16.1283ZM16.1283 5.23974H16.4283V4.93974H16.1283V5.23974ZM17.157 5.23974V4.93974H16.857V5.23974H17.157ZM18.8064 4.00565H17.157V4.60565H18.8064V4.00565ZM17.457 4.30565V2.51434H16.857V4.30565H17.457ZM15.8283 2.51434V4.30565H16.4283V2.51434H15.8283ZM16.1283 4.00565H14.467V4.60565H16.1283V4.00565ZM14.467 5.53974H16.1283V4.93974H14.467V5.53974ZM15.8283 5.23974V7.12564H16.4283V5.23974H15.8283ZM17.457 7.12564V5.23974H16.857V7.12564H17.457ZM17.157 5.53974H18.8064V4.93974H17.157V5.53974ZM16.6426 7.93998C17.0924 7.93998 17.457 7.57539 17.457 7.12564H16.857C16.857 7.24401 16.761 7.33998 16.6426 7.33998V7.93998ZM15.8283 7.12564C15.8283 7.57538 16.1929 7.93998 16.6426 7.93998V7.33998C16.5243 7.33998 16.4283 7.24401 16.4283 7.12564H15.8283ZM13.7 4.77269C13.7 5.19632 14.0434 5.53974 14.467 5.53974V4.93974C14.3748 4.93974 14.3 4.86495 14.3 4.77269H13.7ZM16.6426 1.7C16.1929 1.7 15.8283 2.06459 15.8283 2.51434H16.4283C16.4283 2.39596 16.5243 2.3 16.6426 2.3V1.7ZM17.457 2.51434C17.457 2.06459 17.0924 1.7 16.6426 1.7V2.3C16.761 2.3 16.857 2.39596 16.857 2.51434H17.457ZM14.467 4.00565C14.0434 4.00565 13.7 4.34907 13.7 4.77269H14.3C14.3 4.68044 14.3748 4.60565 14.467 4.60565V4.00565ZM19.5734 4.77269C19.5734 4.34907 19.23 4.00565 18.8064 4.00565V4.60565C18.8987 4.60565 18.9734 4.68044 18.9734 4.77269H19.5734ZM18.9734 4.77269C18.9734 4.86495 18.8987 4.93974 18.8064 4.93974V5.53974C19.23 5.53974 19.5734 5.19632 19.5734 4.77269H18.9734Z" fill="white" mask="url(#path-1-outside-1_1376_11)"/>
<path d="M8 2.12323C7.19648 2.12323 6.53472 2.39744 5.96619 2.96599C5.39752 3.53468 5.1232 4.1966 5.1232 4.99987C5.1232 5.80341 5.39752 6.46532 5.96618 7.03387C6.53499 7.60246 7.19677 7.87677 8 7.87677C8.80339 7.87677 9.46527 7.60256 10.0339 7.03389L8 2.12323ZM8 2.12323C8.80339 2.12323 9.46527 2.39744 10.0339 2.96598M8 2.12323L10.0339 2.96598M10.0339 2.96598C10.6025 3.53467 10.8768 4.19659 10.8768 4.99987M10.0339 2.96598L10.8768 4.99987M10.8768 4.99987C10.8768 5.8034 10.6025 6.46519 10.0339 7.03388L10.8768 4.99987ZM10.9343 7.93416L10.9343 7.93415C11.7399 7.12844 12.15 6.13886 12.15 4.99987C12.15 3.86127 11.74 2.87156 10.9342 2.0656L10.9342 2.06557C10.1284 1.26 9.13869 0.85 8 0.85C6.86105 0.85 5.87149 1.26 5.0658 2.06572C4.26012 2.87143 3.85 3.86114 3.85 4.99987C3.85 6.13886 4.26012 7.12857 5.0658 7.93428L5.06583 7.93431C5.87175 8.73986 6.86142 9.15 8 9.15C9.13882 9.15 10.1285 8.74 10.9343 7.93416Z" fill="white" stroke="white" stroke-width="0.3"/>
<path d="M14.9779 12.852L14.9779 12.852C15.0461 13.247 15.0927 13.6223 15.1157 13.9676M14.9779 12.852L15.1157 13.9676M14.9779 12.852C14.9088 12.4527 14.8197 12.0743 14.7127 11.7273L14.7126 11.7272M14.9779 12.852L14.7126 11.7272M15.1157 13.9676C15.1384 14.3026 15.1499 14.6519 15.15 15.0058M15.1157 13.9676L15.15 15.0058M14.7126 11.7272C14.601 11.3658 14.4497 11.0093 14.2625 10.6679C14.0674 10.3115 13.8367 9.9988 13.5759 9.74001C13.3 9.46615 12.9638 9.24756 12.578 9.08893L12.5779 9.08889M14.7126 11.7272L12.5779 9.08889M12.5779 9.08889C12.1902 8.92976 11.7629 8.85013 11.3091 8.85013C11.088 8.85013 10.8887 8.94836 10.5682 9.16486L10.5681 9.16492M12.5779 9.08889L10.5681 9.16492M10.5681 9.16492C10.3717 9.29782 10.1418 9.45163 9.88499 9.62184L9.96786 9.74687L9.88515 9.62174C9.68002 9.75733 9.39545 9.88849 9.03479 10.0094L9.03471 10.0094M10.5681 9.16492L9.03471 10.0094M9.03471 10.0094C8.69043 10.125 8.34217 10.1832 7.99949 10.1832C7.65707 10.1832 7.3088 10.125 6.96424 10.0094L6.96419 10.0094M9.03471 10.0094L6.96419 10.0094M6.96419 10.0094C6.60391 9.88862 6.3193 9.7575 6.11463 9.62198C5.86027 9.45334 5.63021 9.29952 5.43082 9.16475C5.11054 8.94824 4.91122 8.85 4.69018 8.85C4.23622 8.85 3.809 8.92977 3.42141 9.08905C3.03583 9.24743 2.69947 9.46603 2.42332 9.74016L2.42332 9.74017M6.96419 10.0094L2.42332 9.74017M2.42332 9.74017C2.16254 9.99905 1.93189 10.3116 1.73682 10.668L2.42332 9.74017ZM1.72217 17.2998L1.72212 17.2998C1.13949 16.7241 0.85 15.9472 0.85 15.006C0.85 14.6533 0.861366 14.3039 0.883874 13.968L1.72217 17.2998ZM1.72217 17.2998C2.29668 17.867 3.05407 18.15 3.96006 18.15H12.0399C12.9457 18.15 13.7031 17.867 14.2777 17.2999L14.2777 17.2998M1.72217 17.2998L14.2777 17.2998M14.2777 17.2998C14.8605 16.7245 15.15 15.9473 15.15 15.0059V15.0058M14.2777 17.2998L15.15 15.0058M13.3889 16.3472L13.3889 16.3472C13.7046 16.0356 13.8665 15.6047 13.8666 15.0061C13.8665 14.6821 13.8561 14.3635 13.8355 14.059L13.8348 14.0489H13.8348C13.8148 13.7547 13.7743 13.43 13.7144 13.0832C13.655 12.7392 13.5792 12.4174 13.4895 12.1268C13.4048 11.8522 13.2887 11.5793 13.1445 11.3162L13.1445 11.3161C13.0083 11.0675 12.8532 10.8574 12.6848 10.6901L12.7904 10.5837L12.6848 10.6901C12.5319 10.5384 12.3366 10.4114 12.1021 10.3151C11.9003 10.2322 11.6723 10.1839 11.4218 10.1727C11.3887 10.1924 11.3404 10.2226 11.2732 10.2681L11.1892 10.1437M13.3889 16.3472L9.43266 11.2646C9.88829 11.1119 10.275 10.9334 10.5797 10.7319L10.5799 10.7318C10.8437 10.5568 11.0706 10.4051 11.2733 10.268L11.1892 10.1437M13.3889 16.3472C13.0649 16.6672 12.6305 16.8298 12.0398 16.8298H3.96006C3.36927 16.8298 2.93488 16.6672 2.61096 16.3473C2.29529 16.0356 2.13336 15.6045 2.13336 15.006C2.13336 14.6829 2.14363 14.3642 2.16413 14.0585L2.16413 14.0585M13.3889 16.3472L2.16413 14.0585M11.1892 10.1437C11.2886 10.0767 11.3499 10.0403 11.3843 10.0213M11.1892 10.1437L11.3843 10.0213M11.3843 10.0213C11.667 10.0291 11.9273 10.0812 12.159 10.1763L11.3843 10.0213ZM2.16413 14.0585C2.18396 13.7612 2.22458 13.4332 2.28517 13.0834L2.28517 13.0834M2.16413 14.0585L2.28517 13.0834M2.28517 13.0834C2.34479 12.739 2.42047 12.4171 2.50999 12.127L2.28517 13.0834ZM3.31465 10.6901L3.31464 10.6901C3.14612 10.8575 2.99105 11.0676 2.85487 11.316C2.71079 11.5793 2.59485 11.852 2.51 12.1269L3.31465 10.6901ZM3.31465 10.6901C3.46748 10.5383 3.66272 10.4114 3.89745 10.315L3.89746 10.315M3.31465 10.6901L3.89746 10.315M3.89746 10.315C4.09912 10.2322 4.32709 10.1839 4.57745 10.1727C4.61056 10.1924 4.65879 10.2225 4.72596 10.268L4.726 10.268M3.89746 10.315L4.726 10.268M4.726 10.268C4.92858 10.405 5.16198 10.5612 5.4199 10.7321L5.42 10.7321M4.726 10.268L5.42 10.7321M5.42 10.7321C5.72433 10.9334 6.1112 11.112 6.56649 11.2645L5.42 10.7321ZM1.0217 12.852C0.953351 13.2465 0.906938 13.6219 0.883878 13.9679L1.0217 12.852Z" fill="white" stroke="white" stroke-width="0.3"/>
</svg>
