<svg width="10" height="10" viewBox="0 0 10 10" fill="none" xmlns="http://www.w3.org/2000/svg">
<circle cx="5" cy="5" r="5" fill="#7665A7"/>
<path fill-rule="evenodd" clip-rule="evenodd" d="M7.92599 3.0729C7.82757 2.9757 7.66769 2.9757 7.56926 3.0729L3.9999 6.60104L2.43055 5.06156C2.33212 4.96436 2.17225 4.96436 2.07382 5.06156C1.97539 5.15876 1.97539 5.3161 2.07382 5.41306L3.82228 7.12803C3.91971 7.22399 4.08182 7.22399 4.17926 7.12803L7.92597 3.4244C8.02467 3.32745 8.02467 3.16985 7.92599 3.0729C8.02467 3.16985 7.82757 2.9757 7.92599 3.0729Z" fill="#48367C"/>
<path d="M7.92599 3.0729C7.82757 2.9757 7.66769 2.9757 7.56926 3.0729L3.9999 6.60104L2.43055 5.06156C2.33212 4.96436 2.17225 4.96436 2.07382 5.06156C1.97539 5.15876 1.97539 5.3161 2.07382 5.41306L3.82228 7.12803C3.91971 7.22399 4.08182 7.22399 4.17926 7.12803L7.92597 3.4244C8.02467 3.32745 8.02467 3.16985 7.92599 3.0729C7.82757 2.9757 8.02467 3.16985 7.92599 3.0729Z" stroke="#39276A" stroke-width="0.5"/>
</svg>
