<svg width="521" height="553" viewBox="0 0 521 553" fill="none" xmlns="http://www.w3.org/2000/svg">
<path fill-rule="evenodd" clip-rule="evenodd" d="M397.972 138.133C397.972 214.293 336 276.267 259.839 276.267C184.43 276.267 122.456 214.295 121.706 138.133C121.706 61.9733 183.678 0 259.839 0C335.999 0 397.972 61.972 397.972 138.133ZM336.746 138.88C336.746 96.3227 302.402 61.9733 259.839 61.9733C218.026 61.9733 182.932 95.572 182.932 138.135C182.932 180.692 217.276 215.041 259.839 215.041C302.396 215.041 336.746 181.443 336.746 138.88ZM0 502.5V459.947C0 375.573 68.6973 306.88 153.067 306.88H367.36C451.733 306.88 520.427 375.572 520.427 459.947V502.5C520.427 530.114 498.041 552.5 470.427 552.5H50C22.3858 552.5 0 530.114 0 502.5ZM153.063 368.108C102.292 368.108 61.224 409.176 61.224 459.947L61.2213 490.561H459.195V459.947C459.195 409.176 418.127 368.108 367.356 368.108H153.063Z" fill="white"/>
</svg>
