<svg width="40" height="40" viewBox="0 0 40 40" fill="none" xmlns="http://www.w3.org/2000/svg">
<circle cx="20" cy="20" r="20" fill="#2B1C56"/>
<path d="M20 12.1232C19.1965 12.1232 18.5347 12.3974 17.9662 12.966C17.3975 13.5347 17.1232 14.1966 17.1232 14.9999C17.1232 15.8034 17.3975 16.4653 17.9662 17.0339C18.535 17.6025 19.1968 17.8768 20 17.8768C20.8034 17.8768 21.4653 17.6026 22.0339 17.0339L20 12.1232ZM20 12.1232C20.8034 12.1232 21.4653 12.3974 22.0339 12.966M20 12.1232L22.0339 12.966M22.0339 12.966C22.6025 13.5347 22.8768 14.1966 22.8768 14.9999M22.0339 12.966L22.8768 14.9999M22.8768 14.9999C22.8768 15.8034 22.6025 16.4652 22.0339 17.0339L22.8768 14.9999ZM22.9343 17.9342L22.9343 17.9341C23.7399 17.1284 24.15 16.1389 24.15 14.9999C24.15 13.8613 23.74 12.8716 22.9342 12.0656L22.9342 12.0656C22.1284 11.26 21.1387 10.85 20 10.85C18.8611 10.85 17.8715 11.26 17.0658 12.0657C16.2601 12.8714 15.85 13.8611 15.85 14.9999C15.85 16.1389 16.2601 17.1286 17.0658 17.9343L17.0658 17.9343C17.8718 18.7399 18.8614 19.15 20 19.15C21.1388 19.15 22.1285 18.74 22.9343 17.9342Z" fill="white" stroke="white" stroke-width="0.3"/>
<path d="M26.9779 22.852L26.9779 22.852C27.0461 23.247 27.0927 23.6223 27.1157 23.9676M26.9779 22.852L27.1157 23.9676M26.9779 22.852C26.9088 22.4527 26.8197 22.0743 26.7127 21.7273L26.7126 21.7272M26.9779 22.852L26.7126 21.7272M27.1157 23.9676C27.1384 24.3026 27.1499 24.6519 27.15 25.0058M27.1157 23.9676L27.15 25.0058M26.7126 21.7272C26.601 21.3658 26.4497 21.0093 26.2625 20.6679C26.0674 20.3115 25.8367 19.9988 25.5759 19.74C25.3 19.4661 24.9638 19.2476 24.578 19.0889L24.5779 19.0889M26.7126 21.7272L24.5779 19.0889M24.5779 19.0889C24.1902 18.9298 23.7629 18.8501 23.3091 18.8501C23.088 18.8501 22.8887 18.9484 22.5682 19.1649L22.5681 19.1649M24.5779 19.0889L22.5681 19.1649M22.5681 19.1649C22.3717 19.2978 22.1418 19.4516 21.885 19.6218L21.9679 19.7469L21.8851 19.6217C21.68 19.7573 21.3955 19.8885 21.0348 20.0094L21.0347 20.0094M22.5681 19.1649L21.0347 20.0094M21.0347 20.0094C20.6904 20.125 20.3422 20.1832 19.9995 20.1832C19.6571 20.1832 19.3088 20.125 18.9642 20.0094L18.9642 20.0094M21.0347 20.0094L18.9642 20.0094M18.9642 20.0094C18.6039 19.8886 18.3192 19.7575 18.1146 19.6219C17.8602 19.4533 17.6302 19.2995 17.4308 19.1648C17.1105 18.9482 16.9112 18.85 16.6902 18.85C16.2362 18.85 15.809 18.9298 15.4214 19.0891C15.0358 19.2474 14.6995 19.466 14.4233 19.7402L14.4233 19.7402M18.9642 20.0094L14.4233 19.7402M14.4233 19.7402C14.1625 19.9991 13.9319 20.3116 13.7368 20.668L14.4233 19.7402ZM13.2868 21.7274L13.2868 21.7274C13.3985 21.3656 13.5499 21.0093 13.7368 20.668L13.2868 21.7274ZM13.2868 21.7274C13.1799 22.0744 13.0908 22.4527 13.0217 22.8519L13.2868 21.7274ZM13.7222 27.2998L13.7221 27.2998C13.1395 26.7241 12.85 25.9472 12.85 25.006C12.85 24.6533 12.8614 24.3039 12.8839 23.968L13.7222 27.2998ZM13.7222 27.2998C14.2967 27.867 15.0541 28.15 15.9601 28.15H24.0399C24.9457 28.15 25.7031 27.867 26.2777 27.2999L26.2777 27.2998M13.7222 27.2998L26.2777 27.2998M26.2777 27.2998C26.8605 26.7245 27.15 25.9473 27.15 25.0059V25.0058M26.2777 27.2998L27.15 25.0058M25.3889 26.3472L25.3889 26.3472C25.7046 26.0356 25.8665 25.6047 25.8666 25.0061L25.3889 26.3472ZM25.3889 26.3472C25.0649 26.6672 24.6305 26.8298 24.0398 26.8298H15.9601C15.3693 26.8298 14.9349 26.6672 14.611 26.3473C14.2953 26.0356 14.1334 25.6045 14.1334 25.006C14.1334 24.6829 14.1436 24.3642 14.1641 24.0585L14.1641 24.0585M25.3889 26.3472L14.1641 24.0585M14.1641 24.0585C14.184 23.7612 14.2246 23.4332 14.2852 23.0834L14.2852 23.0834M14.1641 24.0585L14.2852 23.0834M14.2852 23.0834C14.3448 22.739 14.4205 22.4171 14.51 22.127L14.2852 23.0834ZM15.3146 20.6901L15.3146 20.6901C15.1461 20.8575 14.9911 21.0676 14.8549 21.316C14.7108 21.5792 14.5949 21.852 14.51 22.1269L15.3146 20.6901ZM15.3146 20.6901C15.4675 20.5383 15.6627 20.4114 15.8974 20.315L15.8975 20.315M15.3146 20.6901L15.8975 20.315M15.8975 20.315C16.0991 20.2322 16.3271 20.1839 16.5774 20.1727C16.6106 20.1924 16.6588 20.2225 16.726 20.268L16.726 20.268M15.8975 20.315L16.726 20.268M16.726 20.268C16.9286 20.405 17.162 20.5612 17.4199 20.7321L17.42 20.7321M16.726 20.268L17.42 20.7321M17.42 20.7321C17.7243 20.9334 18.1112 21.112 18.5665 21.2645L17.42 20.7321ZM25.1445 21.3162L25.1445 21.3161C25.0083 21.0675 24.8532 20.8574 24.6848 20.6901L24.7904 20.5837L24.6848 20.6901C24.5319 20.5384 24.3366 20.4114 24.1021 20.3151C23.9003 20.2322 23.6723 20.1839 23.4218 20.1727C23.3888 20.1924 23.3405 20.2226 23.2733 20.268C23.2732 20.268 23.2732 20.268 23.2732 20.2681L23.1892 20.1437L25.1445 21.3162ZM25.1445 21.3162C25.2887 21.5793 25.4048 21.8522 25.4895 22.1268C25.5792 22.4174 25.655 22.7392 25.7144 23.0832C25.7749 23.4338 25.8157 23.7619 25.8355 24.0586L25.8355 24.0588M25.1445 21.3162L25.8355 24.0588M25.8355 24.0588C25.8561 24.3632 25.8665 24.682 25.8666 25.006L25.8355 24.0588ZM22.5797 20.7319L22.5799 20.7318L21.4327 21.2646C21.8883 21.1119 22.275 20.9334 22.5797 20.7319ZM13.0217 22.852C12.9534 23.2465 12.9069 23.6219 12.8839 23.9679L13.0217 22.852Z" fill="white" stroke="white" stroke-width="0.3"/>
</svg>
