<svg width="18" height="18" viewBox="0 0 18 18" fill="none" xmlns="http://www.w3.org/2000/svg">
<path d="M10.8812 8.99779L10.973 9.32669L11.2149 9.08569L11.7873 8.51551L11.881 8.42219L11.8318 8.29943C11.6445 7.83194 11.362 7.3945 10.984 7.01647C10.2358 6.2675 9.25252 5.89309 8.27152 5.89309C7.28982 5.89309 6.30654 6.26749 5.55831 7.01647L1.92338 10.6513C1.92337 10.6513 1.92336 10.6513 1.92334 10.6513C0.42554 12.1483 0.425552 14.5797 1.92338 16.0767C2.67157 16.8256 3.65406 17.2 4.63576 17.2C5.6175 17.2 6.60004 16.8256 7.34825 16.0766L10.7352 12.6905L11.2016 12.2242L10.5548 12.3529C10.2869 12.4062 10.0114 12.434 9.73171 12.4342L9.49224 12.4277L9.40626 12.4254L9.34543 12.4862L6.55116 15.2796L6.55109 15.2797C5.49456 16.3369 3.77829 16.3382 2.72043 15.2797L2.72034 15.2796C1.66184 14.2218 1.66235 12.5071 2.72038 11.4483C2.7204 11.4483 2.72041 11.4483 2.72043 11.4483L6.35541 7.81342L6.35546 7.81338C7.41333 6.75487 9.12891 6.75547 10.1869 7.81342L10.187 7.81356C10.5286 8.15441 10.76 8.56394 10.8812 8.99779ZM7.11877 8.99755L7.02743 8.66759L6.78487 8.90922L6.21176 9.48013L6.11819 9.57334L6.16717 9.69599C6.35451 10.1651 6.63777 10.604 7.01647 10.9835L7.01654 10.9835C7.76474 11.7325 8.74728 12.1069 9.72902 12.1069C10.7108 12.1069 11.6933 11.7325 12.4415 10.9835L16.0772 7.34871L16.0772 7.34866C17.5742 5.85097 17.5743 3.42042 16.0773 1.92338C15.3291 1.17441 14.3458 0.8 13.3648 0.8C12.3831 0.8 11.3998 1.1744 10.6516 1.92338L7.26535 5.30949L6.79908 5.77573L7.44579 5.64706C7.71366 5.59377 7.98915 5.56599 8.26885 5.56582L8.50831 5.57229L8.5943 5.57462L8.65513 5.51379L11.4487 2.72033L11.4487 2.72029C12.5066 1.66178 14.2222 1.66238 15.2802 2.72033L15.2802 2.72038C16.3388 3.77826 16.3388 5.49374 15.2802 6.55162L15.2802 6.55165L11.6444 10.1866L11.6444 10.1866C10.5879 11.2438 8.87165 11.2451 7.81379 10.1867C7.47127 9.84354 7.23919 9.43252 7.11877 8.99755Z" fill="white" stroke="white" stroke-width="0.4"/>
</svg>
