<svg width="8" height="9" viewBox="0 0 8 9" fill="none" xmlns="http://www.w3.org/2000/svg">
<path d="M4.41736 3.65234C4.3206 3.65234 4.24219 3.71237 4.24219 3.78644V6.32095C4.24219 6.39496 4.3206 6.45505 4.41736 6.45505C4.51411 6.45505 4.59253 6.39496 4.59253 6.32095V3.78644C4.59253 3.71237 4.51411 3.65234 4.41736 3.65234Z" fill="white" stroke="white" stroke-width="0.221881"/>
<path fill-rule="evenodd" clip-rule="evenodd" d="M0.927943 7.19661V2.54731C0.572036 2.45443 0.341413 2.11638 0.389022 1.75732C0.436706 1.39834 0.747778 1.1298 1.11606 1.12973H2.09876V0.893848C2.09763 0.695487 2.1774 0.505012 2.32023 0.364884C2.46306 0.224829 2.6571 0.146841 2.85885 0.148462H4.56319C4.76495 0.146841 4.95898 0.224829 5.10181 0.364884C5.24464 0.505012 5.32441 0.695487 5.32329 0.893848V1.12973H6.30599C6.67426 1.1298 6.98534 1.39834 7.03302 1.75732C7.08063 2.11638 6.85001 2.45443 6.4941 2.54731V7.19661C6.4941 7.47141 6.39161 7.72948 6.21257 7.91465C6.03443 8.10033 5.78641 8.20574 5.52677 8.20618H1.89527C1.63571 8.20574 1.38769 8.10033 1.20947 7.91465C1.03043 7.72948 0.927943 7.47141 0.927943 7.19661ZM1.89666 7.82778H5.52816C5.85633 7.82778 6.11162 7.55061 6.11162 7.19561V2.5629H1.31321V7.19561C1.31321 7.55061 1.5685 7.82778 1.89666 7.82778ZM2.48336 0.893191C2.48209 0.794932 2.52138 0.700358 2.5923 0.630994C2.66316 0.56163 2.75957 0.52352 2.85959 0.525216H4.56393C4.66394 0.52352 4.76036 0.56163 4.83121 0.630994C4.90214 0.700284 4.94143 0.794932 4.94015 0.893191V1.12907H2.48336V0.893191ZM6.30637 1.50693H1.11644C0.925626 1.50693 0.770952 1.659 0.770952 1.8466C0.770952 2.0342 0.925626 2.18627 1.11644 2.18627H6.30637C6.49718 2.18627 6.65185 2.0342 6.65185 1.8466C6.65185 1.659 6.49718 1.50693 6.30637 1.50693Z" fill="white"/>
<path d="M0.927943 2.54731H1.03888V2.4616L0.955956 2.43996L0.927943 2.54731ZM0.389022 1.75732L0.279047 1.74271L0.279044 1.74274L0.389022 1.75732ZM1.11606 1.12973V1.01879H1.11603L1.11606 1.12973ZM2.09876 1.12973V1.24067H2.2097V1.12973H2.09876ZM2.09876 0.893848H2.2097L2.20969 0.89322L2.09876 0.893848ZM2.32023 0.364884L2.24256 0.285672L2.24254 0.285692L2.32023 0.364884ZM2.85885 0.148462L2.85796 0.259403H2.85885V0.148462ZM4.56319 0.148462V0.259406L4.56408 0.259399L4.56319 0.148462ZM5.10181 0.364884L5.1795 0.285692L5.17948 0.285672L5.10181 0.364884ZM5.32329 0.893848L5.21235 0.89322V0.893848H5.32329ZM5.32329 1.12973H5.21235V1.24067H5.32329V1.12973ZM6.30599 1.12973L6.30601 1.01879H6.30599V1.12973ZM7.03302 1.75732L7.143 1.74274L7.14299 1.74271L7.03302 1.75732ZM6.4941 2.54731L6.46609 2.43996L6.38316 2.4616V2.54731H6.4941ZM6.21257 7.91465L6.13281 7.83753L6.13251 7.83784L6.21257 7.91465ZM5.52677 8.20618V8.31712H5.52696L5.52677 8.20618ZM1.89527 8.20618L1.89508 8.31712H1.89527V8.20618ZM1.20947 7.91465L1.28952 7.83782L1.28923 7.83753L1.20947 7.91465ZM6.11162 2.5629H6.22256V2.45196H6.11162V2.5629ZM1.31321 2.5629V2.45196H1.20227V2.5629H1.31321ZM2.5923 0.630994L2.66987 0.710309L2.66991 0.710268L2.5923 0.630994ZM2.48336 0.893191H2.59431L2.5943 0.891752L2.48336 0.893191ZM2.85959 0.525216L2.85771 0.636156H2.85959V0.525216ZM4.56393 0.525216V0.636172L4.56581 0.63614L4.56393 0.525216ZM4.83121 0.630994L4.7536 0.710268L4.75369 0.710351L4.83121 0.630994ZM4.94015 0.893191L4.82921 0.891752V0.893191H4.94015ZM4.94015 1.12907V1.24001H5.05109V1.12907H4.94015ZM2.48336 1.12907H2.37242V1.24001H2.48336V1.12907ZM0.817003 2.54731V7.19661H1.03888V2.54731H0.817003ZM0.279044 1.74274C0.223899 2.15863 0.491159 2.54798 0.89993 2.65465L0.955956 2.43996C0.652914 2.36088 0.458926 2.07413 0.498999 1.77191L0.279044 1.74274ZM1.11603 1.01879C0.693589 1.01887 0.334244 1.32718 0.279047 1.74271L0.498996 1.77193C0.539168 1.46951 0.801966 1.24073 1.11608 1.24067L1.11603 1.01879ZM2.09876 1.01879H1.11606V1.24067H2.09876V1.01879ZM1.98782 0.893848V1.12973H2.2097V0.893848H1.98782ZM2.24254 0.285692C2.07851 0.446621 1.98652 0.665801 1.98782 0.894477L2.20969 0.89322C2.20874 0.725172 2.2763 0.563404 2.39793 0.444075L2.24254 0.285692ZM2.85975 0.0375256C2.6289 0.0356701 2.40654 0.124875 2.24256 0.285672L2.39791 0.444096C2.51958 0.324783 2.68529 0.258011 2.85796 0.259399L2.85975 0.0375256ZM4.56319 0.037522H2.85885V0.259403H4.56319V0.037522ZM5.17948 0.285672C5.0155 0.124875 4.79314 0.0356701 4.5623 0.0375256L4.56408 0.259399C4.73675 0.258011 4.90246 0.324783 5.02414 0.444095L5.17948 0.285672ZM5.43423 0.894477C5.43552 0.665801 5.34353 0.446621 5.1795 0.285692L5.02412 0.444075C5.14574 0.563404 5.2133 0.725172 5.21235 0.89322L5.43423 0.894477ZM5.43423 1.12973V0.893848H5.21235V1.12973H5.43423ZM6.30599 1.01879H5.32329V1.24067H6.30599V1.01879ZM7.14299 1.74271C7.0878 1.32718 6.72845 1.01887 6.30601 1.01879L6.30596 1.24067C6.62008 1.24073 6.88287 1.46951 6.92305 1.77193L7.14299 1.74271ZM6.52211 2.65465C6.93088 2.54798 7.19814 2.15863 7.143 1.74274L6.92304 1.77191C6.96312 2.07413 6.76913 2.36088 6.46609 2.43996L6.52211 2.65465ZM6.60504 7.19661V2.54731H6.38316V7.19661H6.60504ZM6.29232 7.99176C6.4924 7.78483 6.60504 7.49866 6.60504 7.19661H6.38316C6.38316 7.44416 6.29081 7.67412 6.13281 7.83753L6.29232 7.99176ZM5.52696 8.31712C5.81643 8.31663 6.09339 8.19912 6.29262 7.99145L6.13251 7.83784C5.97547 8.00154 5.75638 8.09485 5.52658 8.09524L5.52696 8.31712ZM1.89527 8.31712H5.52677V8.09524H1.89527V8.31712ZM1.12944 7.99147C1.32873 8.19912 1.60567 8.31663 1.89508 8.31712L1.89546 8.09524C1.66574 8.09485 1.44665 8.00154 1.28951 7.83783L1.12944 7.99147ZM0.817003 7.19661C0.817003 7.49866 0.929638 7.78483 1.12972 7.99176L1.28923 7.83753C1.13123 7.67412 1.03888 7.44416 1.03888 7.19661H0.817003ZM5.52816 7.71684H1.89666V7.93872H5.52816V7.71684ZM6.00068 7.19561C6.00068 7.49795 5.78679 7.71684 5.52816 7.71684V7.93872C5.92587 7.93872 6.22256 7.60328 6.22256 7.19561H6.00068ZM6.00068 2.5629V7.19561H6.22256V2.5629H6.00068ZM1.31321 2.67384H6.11162V2.45196H1.31321V2.67384ZM1.42415 7.19561V2.5629H1.20227V7.19561H1.42415ZM1.89666 7.71684C1.63804 7.71684 1.42415 7.49795 1.42415 7.19561H1.20227C1.20227 7.60328 1.49896 7.93872 1.89666 7.93872V7.71684ZM2.51474 0.551679C2.42234 0.64204 2.37076 0.765703 2.37243 0.89463L2.5943 0.891752C2.59342 0.82416 2.62042 0.758676 2.66987 0.710309L2.51474 0.551679ZM2.86147 0.414291C2.73214 0.412099 2.607 0.461356 2.51469 0.55172L2.66991 0.710268C2.71931 0.661904 2.787 0.634942 2.85771 0.63614L2.86147 0.414291ZM4.56393 0.414275H2.85959V0.636156H4.56393V0.414275ZM4.90882 0.55172C4.81652 0.461356 4.69137 0.412099 4.56205 0.414291L4.56581 0.63614C4.63651 0.634942 4.7042 0.661904 4.7536 0.710268L4.90882 0.55172ZM5.05108 0.89463C5.05275 0.765737 5.0012 0.641966 4.90874 0.551637L4.75369 0.710351C4.80308 0.758602 4.8301 0.824126 4.82922 0.891752L5.05108 0.89463ZM5.05109 1.12907V0.893191H4.82921V1.12907H5.05109ZM2.48336 1.24001H4.94015V1.01813H2.48336V1.24001ZM2.37242 0.893191V1.12907H2.5943V0.893191H2.37242ZM1.11644 1.61787H6.30637V1.39599H1.11644V1.61787ZM0.881893 1.8466C0.881893 1.72204 0.985114 1.61787 1.11644 1.61787V1.39599C0.866139 1.39599 0.660012 1.59596 0.660012 1.8466H0.881893ZM1.11644 2.07533C0.985114 2.07533 0.881893 1.97116 0.881893 1.8466H0.660012C0.660012 2.09724 0.866139 2.29721 1.11644 2.29721V2.07533ZM6.30637 2.07533H1.11644V2.29721H6.30637V2.07533ZM6.54091 1.8466C6.54091 1.97116 6.43769 2.07533 6.30637 2.07533V2.29721C6.55667 2.29721 6.76279 2.09724 6.76279 1.8466H6.54091ZM6.30637 1.61787C6.43769 1.61787 6.54091 1.72204 6.54091 1.8466H6.76279C6.76279 1.59596 6.55667 1.39599 6.30637 1.39599V1.61787Z" fill="white"/>
<path d="M3.01111 3.65234C2.91435 3.65234 2.83594 3.71237 2.83594 3.78644V6.32095C2.83594 6.39496 2.91435 6.45505 3.01111 6.45505C3.10786 6.45505 3.18628 6.39496 3.18628 6.32095V3.78644C3.18628 3.71237 3.10786 3.65234 3.01111 3.65234Z" fill="white" stroke="white" stroke-width="0.221881"/>
</svg>
