<svg width="40" height="40" viewBox="0 0 40 40" fill="none" xmlns="http://www.w3.org/2000/svg">
<circle cx="20" cy="20" r="20" fill="#2B1C56"/>
<path fill-rule="evenodd" clip-rule="evenodd" d="M27.5 28H12.5C12.1022 28 11.7207 27.842 11.4394 27.5607C11.1581 27.2794 11 26.8978 11 26.5V14.5C11 14.1022 11.1581 13.7206 11.4394 13.4393C11.7207 13.158 12.1022 13 12.5 13H16.25V11.5C16.25 11.1022 16.4081 10.7206 16.6894 10.4393C16.9707 10.158 17.3522 10 17.75 10H22.25C22.6478 10 23.0293 10.158 23.3106 10.4393C23.5919 10.7206 23.75 11.1022 23.75 11.5V13H27.5C27.8978 13 28.2793 13.158 28.5606 13.4393C28.8419 13.7206 29 14.1022 29 14.5V26.5C29 26.8978 28.8419 27.2794 28.5606 27.5607C28.2793 27.842 27.8978 28 27.5 28ZM22.25 11.5H17.75V13H22.25V11.5ZM27.5 21.25H23.75C23.75 21.6478 23.5919 22.0294 23.3106 22.3107C23.0293 22.592 22.6478 22.75 22.25 22.75H17.75C17.3522 22.75 16.9707 22.592 16.6894 22.3107C16.4081 22.0294 16.25 21.6478 16.25 21.25H12.5V19.75H16.25C16.25 19.3522 16.4081 18.9706 16.6894 18.6893C16.9707 18.408 17.3522 18.25 17.75 18.25H22.25C22.6478 18.25 23.0293 18.408 23.3106 18.6893C23.5919 18.9706 23.75 19.3522 23.75 19.75H27.5V14.5H12.5V26.5H27.5V21.25ZM22.25 20.5C22.25 20.3011 22.171 20.1103 22.0304 19.9697C21.8897 19.829 21.6989 19.75 21.5 19.75H18.5C18.3011 19.75 18.1103 19.829 17.9696 19.9697C17.829 20.1103 17.75 20.3011 17.75 20.5C17.75 20.6989 17.829 20.8897 17.9696 21.0303C18.1103 21.171 18.3011 21.25 18.5 21.25H21.5C21.6989 21.25 21.8897 21.171 22.0304 21.0303C22.171 20.8897 22.25 20.6989 22.25 20.5Z" fill="white"/>
</svg>
