<svg width="46" height="45" viewBox="0 0 46 45" fill="none" xmlns="http://www.w3.org/2000/svg">
<path d="M35.5939 38.9471H10.5541C10.1852 38.9471 9.83138 38.8006 9.57051 38.5397C9.30964 38.2788 9.16309 37.925 9.16309 37.5561V6.95353C9.16309 6.5846 9.30964 6.23079 9.57051 5.96992C9.83138 5.70905 10.1852 5.5625 10.5541 5.5625H27.2478L36.985 15.2997V37.5561C36.985 37.7388 36.949 37.9196 36.8791 38.0884C36.8092 38.2572 36.7067 38.4105 36.5775 38.5397C36.4484 38.6689 36.295 38.7713 36.1263 38.8412C35.9575 38.9111 35.7766 38.9471 35.5939 38.9471Z" stroke="#685C9A" stroke-width="2.78205" stroke-linecap="round" stroke-linejoin="round"/>
<path d="M27 6V15.7372H36.7386" stroke="#685C9A" stroke-width="2.78205" stroke-linecap="round" stroke-linejoin="round"/>
<path d="M18.9004 26.4297H27.2465" stroke="#685C9A" stroke-width="2.78205" stroke-linecap="round" stroke-linejoin="round"/>
<path d="M23.0732 22.2578V30.604" stroke="#685C9A" stroke-width="2.78205" stroke-linecap="round" stroke-linejoin="round"/>
</svg>
