<svg width="56" height="55" viewBox="0 0 56 55" fill="none" xmlns="http://www.w3.org/2000/svg">
<path d="M7.375 44.6875V13.75C7.375 13.2942 7.55608 12.857 7.87841 12.5347C8.20074 12.2123 8.63791 12.0312 9.09375 12.0312H20.5521C20.924 12.0312 21.2858 12.1519 21.5833 12.375L27.5417 16.8438C27.8392 17.0669 28.201 17.1875 28.5729 17.1875H43.4688C43.9246 17.1875 44.3618 17.3686 44.6841 17.6909C45.0064 18.0132 45.1875 18.4504 45.1875 18.9062V24.0625" stroke="#6A5A97" stroke-width="3" stroke-linecap="round" stroke-linejoin="round"/>
<path d="M7.375 44.6875L13.8583 25.2377C13.9723 24.8955 14.1912 24.5979 14.4838 24.3869C14.7765 24.176 15.1281 24.0625 15.4888 24.0625H49.6779C49.9502 24.0625 50.2186 24.1272 50.4611 24.2513C50.7035 24.3754 50.9129 24.5553 51.0722 24.7763C51.2314 24.9972 51.3359 25.2528 51.377 25.522C51.418 25.7913 51.3945 26.0664 51.3084 26.3248L45.1875 44.6875H7.375Z" stroke="#6A5A97" stroke-width="3" stroke-linecap="round" stroke-linejoin="round"/>
</svg>
