<svg width="14" height="17" viewBox="0 0 14 17" fill="none" xmlns="http://www.w3.org/2000/svg">
<path fill-rule="evenodd" clip-rule="evenodd" d="M2.01479 14.1206V5.46563C1.35225 5.29273 0.922932 4.66344 1.01156 3.99503C1.10033 3.32677 1.6794 2.82687 2.36497 2.82673H4.19433V2.38763C4.19223 2.01836 4.34074 1.66378 4.60662 1.40293C4.8725 1.14221 5.23371 0.997027 5.60929 1.00005H8.78201C9.15759 0.997027 9.5188 1.14221 9.78469 1.40293C10.0506 1.66378 10.1991 2.01836 10.197 2.38763V2.82673H12.0263C12.7119 2.82687 13.291 3.32677 13.3797 3.99503C13.4684 4.66344 13.0391 5.29273 12.3765 5.46563V14.1206C12.3765 14.6321 12.1857 15.1125 11.8524 15.4572C11.5208 15.8029 11.0591 15.9991 10.5758 16H3.81553C3.33234 15.9991 2.87064 15.8029 2.53888 15.4572C2.20559 15.1125 2.01479 14.6321 2.01479 14.1206ZM3.81574 15.2958H10.576C11.1869 15.2958 11.6621 14.7799 11.6621 14.119V5.49495H2.7296V14.119C2.7296 14.7799 3.20484 15.2958 3.81574 15.2958ZM4.90953 2.38751C4.90715 2.20459 4.98029 2.02854 5.11232 1.89941C5.24422 1.77029 5.4237 1.69934 5.60989 1.7025H8.78261C8.9688 1.69934 9.14828 1.77029 9.28018 1.89941C9.41221 2.0284 9.48535 2.20459 9.48297 2.38751V2.82662H4.90953V2.38751ZM12.0234 3.52862H2.36204C2.00683 3.52862 1.71889 3.81171 1.71889 4.16094C1.71889 4.51016 2.00683 4.79325 2.36204 4.79325H12.0234C12.3786 4.79325 12.6665 4.51016 12.6665 4.16094C12.6665 3.81171 12.3786 3.52862 12.0234 3.52862Z" fill="white"/>
<path d="M2.01479 5.46563H2.26479V5.2725L2.07792 5.22373L2.01479 5.46563ZM1.01156 3.99503L0.763736 3.96211L0.763728 3.96217L1.01156 3.99503ZM2.36497 2.82673V2.57673H2.36492L2.36497 2.82673ZM4.19433 2.82673V3.07673H4.44433V2.82673H4.19433ZM4.19433 2.38763H4.44433L4.44432 2.38621L4.19433 2.38763ZM4.60662 1.40293L4.43158 1.22443L4.43154 1.22447L4.60662 1.40293ZM5.60929 1.00005L5.60728 1.25005H5.60929V1.00005ZM8.78201 1.00005V1.25005L8.78402 1.25004L8.78201 1.00005ZM9.78469 1.40293L9.95977 1.22447L9.95972 1.22443L9.78469 1.40293ZM10.197 2.38763L9.94698 2.38621V2.38763H10.197ZM10.197 2.82673H9.94698V3.07673H10.197V2.82673ZM12.0263 2.82673L12.0264 2.57673H12.0263V2.82673ZM13.3797 3.99503L13.6276 3.96217L13.6276 3.96211L13.3797 3.99503ZM12.3765 5.46563L12.3134 5.22373L12.1265 5.2725V5.46563H12.3765ZM11.8524 15.4572L11.6727 15.2835L11.672 15.2842L11.8524 15.4572ZM10.5758 16V16.25H10.5762L10.5758 16ZM3.81553 16L3.81511 16.25H3.81553V16ZM2.53888 15.4572L2.71925 15.2841L2.7186 15.2835L2.53888 15.4572ZM11.6621 5.49495H11.9121V5.24495H11.6621V5.49495ZM2.7296 5.49495V5.24495H2.4796V5.49495H2.7296ZM5.11232 1.89941L5.28712 2.07815L5.28721 2.07805L5.11232 1.89941ZM4.90953 2.38751H5.15955L5.15951 2.38427L4.90953 2.38751ZM5.60989 1.7025L5.60565 1.9525H5.60989V1.7025ZM8.78261 1.7025V1.95254L8.78685 1.95246L8.78261 1.7025ZM9.28018 1.89941L9.10529 2.07805L9.10548 2.07824L9.28018 1.89941ZM9.48297 2.38751L9.23297 2.38426V2.38751H9.48297ZM9.48297 2.82662V3.07662H9.73297V2.82662H9.48297ZM4.90953 2.82662H4.65953V3.07662H4.90953V2.82662ZM1.76479 5.46563V14.1206H2.26479V5.46563H1.76479ZM0.763728 3.96217C0.658119 4.75865 1.17 5.50354 1.95167 5.70753L2.07792 5.22373C1.53451 5.08192 1.18774 4.56822 1.25939 4.02789L0.763728 3.96217ZM2.36492 2.57673C1.55729 2.57689 0.869432 3.1664 0.763736 3.96211L1.25938 4.02795C1.33122 3.48713 1.80152 3.07685 2.36502 3.07673L2.36492 2.57673ZM4.19433 2.57673H2.36497V3.07673H4.19433V2.57673ZM3.94433 2.38763V2.82673H4.44433V2.38763H3.94433ZM4.43154 1.22447C4.11788 1.5322 3.94185 1.95147 3.94433 2.38904L4.44432 2.38621C4.44262 2.08526 4.56359 1.79537 4.7817 1.58138L4.43154 1.22447ZM5.6113 0.750054C5.17018 0.746509 4.74513 0.916965 4.43158 1.22443L4.78165 1.58143C4.99987 1.36745 5.29724 1.24755 5.60728 1.25004L5.6113 0.750054ZM8.78201 0.750046H5.60929V1.25005H8.78201V0.750046ZM9.95972 1.22443C9.64617 0.916965 9.22112 0.746509 8.78 0.750054L8.78402 1.25004C9.09407 1.24755 9.39143 1.36745 9.60965 1.58143L9.95972 1.22443ZM10.447 2.38904C10.4495 1.95147 10.2734 1.5322 9.95977 1.22447L9.6096 1.58138C9.82771 1.79537 9.94869 2.08526 9.94698 2.38621L10.447 2.38904ZM10.447 2.82673V2.38763H9.94698V2.82673H10.447ZM12.0263 2.57673H10.197V3.07673H12.0263V2.57673ZM13.6276 3.96211C13.5219 3.1664 12.834 2.57689 12.0264 2.57673L12.0263 3.07673C12.5898 3.07685 13.0601 3.48713 13.1319 4.02795L13.6276 3.96211ZM12.4396 5.70753C13.2213 5.50354 13.7332 4.75865 13.6276 3.96217L13.1319 4.02789C13.2036 4.56822 12.8568 5.08192 12.3134 5.22373L12.4396 5.70753ZM12.6265 14.1206V5.46563H12.1265V14.1206H12.6265ZM12.0321 15.631C12.4129 15.2373 12.6265 14.6935 12.6265 14.1206H12.1265C12.1265 14.5707 11.9586 14.9878 11.6727 15.2835L12.0321 15.631ZM10.5762 16.25C11.1268 16.249 11.6537 16.0255 12.0328 15.6303L11.672 15.2842C11.3879 15.5803 10.9914 15.7492 10.5753 15.75L10.5762 16.25ZM3.81553 16.25H10.5758V15.75H3.81553V16.25ZM2.35851 15.6304C2.73778 16.0255 3.26466 16.249 3.81511 16.25L3.81596 15.75C3.40002 15.7492 3.00349 15.5803 2.71925 15.2841L2.35851 15.6304ZM1.76479 14.1206C1.76479 14.6935 1.97845 15.2373 2.35915 15.631L2.7186 15.2835C2.43272 14.9878 2.26479 14.5707 2.26479 14.1206H1.76479ZM10.576 15.0458H3.81574V15.5458H10.576V15.0458ZM11.4121 14.119C11.4121 14.6612 11.0302 15.0458 10.576 15.0458V15.5458C11.3436 15.5458 11.9121 14.8985 11.9121 14.119H11.4121ZM11.4121 5.49495V14.119H11.9121V5.49495H11.4121ZM2.7296 5.74495H11.6621V5.24495H2.7296V5.74495ZM2.9796 14.119V5.49495H2.4796V14.119H2.9796ZM3.81574 15.0458C3.36154 15.0458 2.9796 14.6612 2.9796 14.119H2.4796C2.4796 14.8985 3.04813 15.5458 3.81574 15.5458V15.0458ZM4.93753 1.72068C4.75711 1.89712 4.65628 2.13873 4.65955 2.39075L5.15951 2.38427C5.15803 2.27046 5.20347 2.15996 5.28712 2.07815L4.93753 1.72068ZM5.61413 1.45254C5.36189 1.44826 5.11766 1.54432 4.93743 1.72077L5.28721 2.07805C5.37077 1.99625 5.48552 1.95043 5.60565 1.95246L5.61413 1.45254ZM8.78261 1.4525H5.60989V1.9525H8.78261V1.4525ZM9.45507 1.72077C9.27484 1.54432 9.03061 1.44826 8.77837 1.45254L8.78685 1.95246C8.90699 1.95043 9.02173 1.99625 9.10529 2.07805L9.45507 1.72077ZM9.73295 2.39075C9.73622 2.1388 9.63544 1.89698 9.45488 1.72058L9.10548 2.07824C9.18898 2.15982 9.23447 2.27038 9.233 2.38427L9.73295 2.39075ZM9.73297 2.82662V2.38751H9.23297V2.82662H9.73297ZM4.90953 3.07662H9.48297V2.57662H4.90953V3.07662ZM4.65953 2.38751V2.82662H5.15953V2.38751H4.65953ZM2.36204 3.77862H12.0234V3.27862H2.36204V3.77862ZM1.96889 4.16094C1.96889 3.95377 2.14088 3.77862 2.36204 3.77862V3.27862C1.87278 3.27862 1.46889 3.66965 1.46889 4.16094H1.96889ZM2.36204 4.54325C2.14088 4.54325 1.96889 4.36811 1.96889 4.16094H1.46889C1.46889 4.65222 1.87278 5.04325 2.36204 5.04325V4.54325ZM12.0234 4.54325H2.36204V5.04325H12.0234V4.54325ZM12.4165 4.16094C12.4165 4.36811 12.2445 4.54325 12.0234 4.54325V5.04325C12.5126 5.04325 12.9165 4.65222 12.9165 4.16094H12.4165ZM12.0234 3.77862C12.2445 3.77862 12.4165 3.95376 12.4165 4.16094H12.9165C12.9165 3.66965 12.5126 3.27862 12.0234 3.27862V3.77862Z" fill="white"/>
</svg>
