<svg width="25" height="25" viewBox="0 0 25 25" fill="none" xmlns="http://www.w3.org/2000/svg">
<path d="M23.1013 8.40303C23.1792 7.98536 23.2187 7.56141 23.2192 7.13652C23.2145 3.19037 20.0124 -0.00475697 16.0672 5.31667e-06C13.0639 0.00361628 10.3836 1.88577 9.36002 4.7099C7.52729 3.98018 5.45012 4.87465 4.72051 6.70781C4.65736 6.86649 4.60567 7.02945 4.56586 7.1955C1.63947 7.63327 -0.378002 10.361 0.0596577 13.2881C0.452165 15.9133 2.70686 17.8554 5.36055 17.8543H9.8252C10.3184 17.8543 10.7182 17.4545 10.7182 16.9612C10.7182 16.4679 10.3184 16.068 9.8252 16.068H5.36055C3.38791 16.068 1.78879 14.4685 1.78879 12.4954C1.78879 10.5223 3.38791 8.9228 5.36055 8.9228C5.85372 8.9228 6.2535 8.52292 6.2535 8.02963C6.25512 7.04311 7.05599 6.24467 8.04228 6.24629C8.50872 6.24707 8.95637 6.43034 9.28944 6.7569C9.64067 7.10313 10.206 7.099 10.5522 6.74769C10.6822 6.61576 10.7679 6.44672 10.7976 6.26387C11.2823 3.34721 14.039 1.37583 16.955 1.86065C19.871 2.34546 21.8419 5.10287 21.3572 8.01953C21.3283 8.19344 21.2908 8.36582 21.2449 8.53601C21.1423 8.90883 21.2911 9.30535 21.6137 9.51845C23.2574 10.6093 23.7057 12.8265 22.6151 14.4706C21.955 15.4657 20.8414 16.0651 19.6475 16.0679H16.9687C16.4755 16.0679 16.0757 16.4678 16.0757 16.9611C16.0757 17.4544 16.4755 17.8542 16.9687 17.8542H19.6475C22.6064 17.8515 25.0028 15.4499 25 12.4903C24.9985 10.915 24.3041 9.42012 23.1013 8.40303Z" fill="#7665A7"/>
<path d="M18.4733 19.0088C18.1272 18.6745 17.5786 18.6745 17.2326 19.0088L14.2904 21.9499V8.92246C14.2904 8.42917 13.8906 8.0293 13.3975 8.0293C12.9043 8.0293 12.5045 8.42917 12.5045 8.92246V21.9499L9.56404 19.0087C9.20931 18.666 8.64404 18.6759 8.30145 19.0306C7.96723 19.3768 7.96723 19.9255 8.30145 20.2716L12.7661 24.7373C13.1143 25.0865 13.6798 25.0873 14.0289 24.7389C14.0294 24.7384 14.03 24.7378 14.0305 24.7373L18.4952 20.2716C18.8378 19.9168 18.828 19.3514 18.4733 19.0088Z" fill="#7665A7"/>
</svg>
