<svg width="16" height="19" viewBox="0 0 16 19" fill="none" xmlns="http://www.w3.org/2000/svg">
<path fill-rule="evenodd" clip-rule="evenodd" d="M2.02512 16.3201V5.81871C1.22577 5.60892 0.707799 4.84537 0.814727 4.03438C0.921824 3.22354 1.62048 2.617 2.44762 2.61683H4.65472V2.08405C4.65219 1.63601 4.83136 1.20578 5.15215 0.889277C5.47293 0.572936 5.90873 0.396784 6.36187 0.400447H10.1897C10.6429 0.396784 11.0787 0.572936 11.3995 0.889277C11.7202 1.20578 11.8994 1.63601 11.8969 2.08405V2.61683H14.104C14.9311 2.617 15.6298 3.22354 15.7369 4.03438C15.8438 4.84537 15.3258 5.60892 14.5265 5.81871V16.3201C14.5265 16.9408 14.2963 17.5237 13.8942 17.9419C13.4941 18.3613 12.937 18.5994 12.3539 18.6004H4.19771C3.61474 18.5994 3.0577 18.3613 2.65743 17.9419C2.25531 17.5237 2.02512 16.9408 2.02512 16.3201ZM4.19675 17.7468H12.3529C13.09 17.7468 13.6634 17.1208 13.6634 16.319V5.85508H2.88633V16.319C2.88633 17.1208 3.4597 17.7468 4.19675 17.7468ZM5.51686 2.08439C5.514 1.86245 5.60224 1.64884 5.76154 1.49217C5.92067 1.3355 6.13722 1.24942 6.36185 1.25325H10.1897C10.4144 1.24942 10.6309 1.3355 10.79 1.49217C10.9493 1.64867 11.0376 1.86245 11.0347 2.08439V2.61718H5.51686V2.08439ZM14.1046 3.46797H2.44821C2.01966 3.46797 1.67227 3.81145 1.67227 4.23518C1.67227 4.65891 2.01966 5.00239 2.44821 5.00239H14.1046C14.5331 5.00239 14.8805 4.65891 14.8805 4.23518C14.8805 3.81145 14.5331 3.46797 14.1046 3.46797Z" fill="#7665A7"/>
<path d="M2.02512 5.81871H2.12512V5.74156L2.05051 5.72198L2.02512 5.81871ZM0.814727 4.03438L0.715588 4.02128L0.715585 4.0213L0.814727 4.03438ZM2.44762 2.61683V2.51683H2.4476L2.44762 2.61683ZM4.65472 2.61683V2.71683H4.75472V2.61683H4.65472ZM4.65472 2.08405H4.75472L4.75472 2.08348L4.65472 2.08405ZM5.15215 0.889277L5.08193 0.818075L5.08191 0.818094L5.15215 0.889277ZM6.36187 0.400447L6.36106 0.500447H6.36187V0.400447ZM10.1897 0.400447V0.50045L10.1905 0.500443L10.1897 0.400447ZM11.3995 0.889277L11.4697 0.818093L11.4697 0.818075L11.3995 0.889277ZM11.8969 2.08405L11.7969 2.08348V2.08405H11.8969ZM11.8969 2.61683H11.7969V2.71683H11.8969V2.61683ZM14.104 2.61683L14.104 2.51683H14.104V2.61683ZM15.7369 4.03438L15.836 4.0213L15.836 4.02128L15.7369 4.03438ZM14.5265 5.81871L14.5011 5.72198L14.4265 5.74156V5.81871H14.5265ZM13.8942 17.9419L13.8221 17.8726L13.8218 17.8729L13.8942 17.9419ZM12.3539 18.6004V18.7004H12.3541L12.3539 18.6004ZM4.19771 18.6004L4.19753 18.7004H4.19771V18.6004ZM2.65743 17.9419L2.72977 17.8729L2.72952 17.8726L2.65743 17.9419ZM13.6634 5.85508H13.7634V5.75508H13.6634V5.85508ZM2.88633 5.85508V5.75508H2.78633V5.85508H2.88633ZM5.76154 1.49217L5.83166 1.56346L5.8317 1.56343L5.76154 1.49217ZM5.51686 2.08439H5.61687L5.61686 2.0831L5.51686 2.08439ZM6.36185 1.25325L6.36015 1.35325H6.36185V1.25325ZM10.1897 1.25325V1.35326L10.1914 1.35323L10.1897 1.25325ZM10.79 1.49217L10.7199 1.56343L10.72 1.5635L10.79 1.49217ZM11.0347 2.08439L10.9347 2.0831V2.08439H11.0347ZM11.0347 2.61718V2.71718H11.1347V2.61718H11.0347ZM5.51686 2.61718H5.41686V2.71718H5.51686V2.61718ZM1.92512 5.81871V16.3201H2.12512V5.81871H1.92512ZM0.715585 4.0213C0.601965 4.88305 1.15243 5.69306 1.99974 5.91543L2.05051 5.72198C1.29911 5.52478 0.813632 4.8077 0.913869 4.04745L0.715585 4.0213ZM2.4476 2.51683C1.57117 2.51701 0.829367 3.15986 0.715588 4.02128L0.913866 4.04747C1.01428 3.28723 1.66979 2.71699 2.44764 2.71683L2.4476 2.51683ZM4.65472 2.51683H2.44762V2.71683H4.65472V2.51683ZM4.55472 2.08405V2.61683H4.75472V2.08405H4.55472ZM5.08191 0.818094C4.74208 1.1534 4.55204 1.60944 4.55472 2.08461L4.75472 2.08348C4.75235 1.66258 4.92065 1.25817 5.22238 0.960461L5.08191 0.818094ZM6.36268 0.30045C5.88314 0.296574 5.42174 0.482971 5.08193 0.818075L5.22236 0.960479C5.52412 0.662901 5.93432 0.496994 6.36106 0.500443L6.36268 0.30045ZM10.1897 0.300447H6.36187V0.500447H10.1897V0.300447ZM11.4697 0.818075C11.1299 0.482971 10.6685 0.296574 10.1889 0.30045L10.1905 0.500443C10.6173 0.496994 11.0275 0.662901 11.3292 0.960479L11.4697 0.818075ZM11.9969 2.08461C11.9996 1.60944 11.8095 1.1534 11.4697 0.818093L11.3292 0.960461C11.631 1.25817 11.7993 1.66258 11.7969 2.08348L11.9969 2.08461ZM11.9969 2.61683V2.08405H11.7969V2.61683H11.9969ZM14.104 2.51683H11.8969V2.71683H14.104V2.51683ZM15.836 4.02128C15.7222 3.15986 14.9804 2.51701 14.104 2.51683L14.104 2.71683C14.8818 2.71699 15.5373 3.28723 15.6377 4.04747L15.836 4.02128ZM14.5519 5.91543C15.3992 5.69306 15.9496 4.88305 15.836 4.0213L15.6377 4.04745C15.738 4.8077 15.2525 5.52478 14.5011 5.72198L14.5519 5.91543ZM14.6265 16.3201V5.81871H14.4265V16.3201H14.6265ZM13.9663 18.0112C14.3873 17.5733 14.6265 16.9652 14.6265 16.3201H14.4265C14.4265 16.9164 14.2053 17.474 13.8221 17.8726L13.9663 18.0112ZM12.3541 18.7004C12.9643 18.6993 13.5475 18.4502 13.9665 18.0109L13.8218 17.8729C13.4407 18.2724 12.9098 18.4994 12.3537 18.5004L12.3541 18.7004ZM4.19771 18.7004H12.3539V18.5004H4.19771V18.7004ZM2.58509 18.0109C3.00431 18.4502 3.58747 18.6993 4.19753 18.7004L4.19788 18.5004C3.642 18.4994 3.11109 18.2724 2.72977 17.8729L2.58509 18.0109ZM1.92512 16.3201C1.92512 16.9652 2.16434 17.5733 2.58535 18.0112L2.72952 17.8726C2.34629 17.474 2.12512 16.9164 2.12512 16.3201H1.92512ZM12.3529 17.6468H4.19675V17.8468H12.3529V17.6468ZM13.5634 16.319C13.5634 17.0739 13.0268 17.6468 12.3529 17.6468V17.8468C13.1532 17.8468 13.7634 17.1677 13.7634 16.319H13.5634ZM13.5634 5.85508V16.319H13.7634V5.85508H13.5634ZM2.88633 5.95508H13.6634V5.75508H2.88633V5.95508ZM2.98633 16.319V5.85508H2.78633V16.319H2.98633ZM4.19675 17.6468C3.52289 17.6468 2.98633 17.0739 2.98633 16.319H2.78633C2.78633 17.1677 3.39651 17.8468 4.19675 17.8468V17.6468ZM5.69142 1.42087C5.51283 1.59652 5.41366 1.83629 5.41687 2.08568L5.61686 2.0831C5.61435 1.88862 5.69165 1.70116 5.83166 1.56346L5.69142 1.42087ZM6.36356 1.15326C6.11232 1.14898 5.8698 1.24524 5.69138 1.42091L5.8317 1.56343C5.97153 1.42575 6.16212 1.34986 6.36015 1.35323L6.36356 1.15326ZM10.1897 1.15325H6.36185V1.35325H10.1897V1.15325ZM10.8602 1.42091C10.6818 1.24524 10.4393 1.14898 10.188 1.15326L10.1914 1.35323C10.3895 1.34986 10.58 1.42575 10.7199 1.56343L10.8602 1.42091ZM11.1347 2.08568C11.1379 1.83632 11.0388 1.59635 10.8601 1.42084L10.72 1.5635C10.8599 1.701 10.9372 1.88859 10.9347 2.0831L11.1347 2.08568ZM11.1347 2.61718V2.08439H10.9347V2.61718H11.1347ZM5.51686 2.71718H11.0347V2.51718H5.51686V2.71718ZM5.41686 2.08439V2.61718H5.61686V2.08439H5.41686ZM2.44821 3.56797H14.1046V3.36797H2.44821V3.56797ZM1.77227 4.23518C1.77227 3.86774 2.07381 3.56797 2.44821 3.56797V3.36797C1.9655 3.36797 1.57227 3.75516 1.57227 4.23518H1.77227ZM2.44821 4.90239C2.07381 4.90239 1.77227 4.60262 1.77227 4.23518H1.57227C1.57227 4.7152 1.9655 5.10239 2.44821 5.10239V4.90239ZM14.1046 4.90239H2.44821V5.10239H14.1046V4.90239ZM14.7805 4.23518C14.7805 4.60262 14.479 4.90239 14.1046 4.90239V5.10239C14.5873 5.10239 14.9805 4.7152 14.9805 4.23518H14.7805ZM14.1046 3.56797C14.479 3.56797 14.7805 3.86774 14.7805 4.23518H14.9805C14.9805 3.75516 14.5873 3.36797 14.1046 3.36797V3.56797Z" fill="#7665A7"/>
</svg>
