<svg width="21" height="21" viewBox="0 0 21 21" fill="none" xmlns="http://www.w3.org/2000/svg">
<rect width="21" height="21" rx="10.5" fill="#100824"/>
<path d="M11.1871 10.5001L14.1075 7.57956C14.2975 7.38959 14.2975 7.08244 14.1075 6.89247C13.9175 6.70251 13.6104 6.70251 13.4204 6.89247L10.5 9.81297L7.57961 6.89247C7.38955 6.70251 7.0825 6.70251 6.89254 6.89247C6.70249 7.08244 6.70249 7.38959 6.89254 7.57956L9.81289 10.5001L6.89254 13.4206C6.70249 13.6105 6.70249 13.9177 6.89254 14.1076C6.98721 14.2024 7.11168 14.25 7.23607 14.25C7.36046 14.25 7.48485 14.2024 7.57961 14.1076L10.5 11.1871L13.4204 14.1076C13.5152 14.2024 13.6395 14.25 13.7639 14.25C13.8883 14.25 14.0127 14.2024 14.1075 14.1076C14.2975 13.9177 14.2975 13.6105 14.1075 13.4206L11.1871 10.5001Z" fill="white" stroke="white" stroke-width="0.5"/>
</svg>
