<svg width="26" height="25" viewBox="0 0 26 25" fill="none" xmlns="http://www.w3.org/2000/svg">
<rect width="25.0547" height="25" rx="12.5" fill="#150C2D"/>
<path fill-rule="evenodd" clip-rule="evenodd" d="M16.6186 7.85938H15.6282V7.34375C15.6282 7.15391 15.474 7 15.2837 7C15.0934 7 14.9392 7.15391 14.9392 7.34375V7.85938H10.1161V7.34375C10.1161 7.15391 9.96192 7 9.77164 7C9.58137 7 9.42714 7.15391 9.42714 7.34375V7.85938H8.4367C7.6531 7.85938 7.01562 8.49546 7.01562 9.27734V16.582C7.01562 17.3639 7.6531 18 8.4367 18H16.6186C17.4022 18 18.0397 17.3639 18.0397 16.582V9.27734C18.0397 8.49546 17.4022 7.85938 16.6186 7.85938ZM8.43715 8.54688H9.42759V8.89062C9.42759 9.08046 9.58182 9.23438 9.77209 9.23438C9.96236 9.23438 10.1166 9.08046 10.1166 8.89062V8.54688H14.9396V8.89062C14.9396 9.08046 15.0939 9.23438 15.2841 9.23438C15.4744 9.23438 15.6286 9.08046 15.6286 8.89062V8.54688H16.6191C17.0227 8.54688 17.3511 8.87455 17.3511 9.27734V10.0938H7.70508V9.27734C7.70508 8.87455 8.03347 8.54688 8.43715 8.54688ZM8.43715 17.3125H16.6191C17.0227 17.3125 17.3511 16.9848 17.3511 16.582V10.7812H7.70508V16.582C7.70508 16.9848 8.03347 17.3125 8.43715 17.3125Z" fill="#7665A7"/>
</svg>
