<svg width="26" height="25" viewBox="0 0 26 25" fill="none" xmlns="http://www.w3.org/2000/svg">
<path d="M0 12.5C0 5.59644 5.62379 0 12.5274 0C19.4309 0 25.0547 5.59644 25.0547 12.5C25.0547 19.4036 19.4309 25 12.5274 25C5.62379 25 0 19.4036 0 12.5Z" fill="#150C2D"/>
<path d="M12.4199 7C14.1032 7 15.4571 8.35388 15.4571 10.0371C15.4571 11.6838 14.1032 13.0743 12.4199 13.0743C10.7367 13.0743 9.38281 11.6837 9.38281 10.0371C9.38281 8.35391 10.7367 7 12.4199 7ZM12.4199 8.06121C11.3222 8.06121 10.4439 8.93943 10.4439 10.0372C10.4439 11.135 11.3222 12.0132 12.4199 12.0132C13.5177 12.0132 14.3959 11.135 14.3959 10.0372C14.3959 8.93943 13.5177 8.06121 12.4199 8.06121Z" fill="#7665A7"/>
<path d="M7.95279 17.1365C7.80645 17.3927 7.47712 17.4659 7.25756 17.2829C7.00145 17.1365 6.92823 16.8072 7.07457 16.551C8.28212 14.758 10.2582 13.6602 12.4171 13.6602C14.5761 13.6602 16.5887 14.7579 17.7597 16.551C17.906 16.8071 17.8329 17.1364 17.6134 17.2829C17.3573 17.4659 17.0279 17.3927 16.8815 17.1365C15.8935 15.6362 14.2102 14.7214 12.4171 14.7214C10.6241 14.7214 8.94091 15.6362 7.95279 17.1365Z" fill="#7665A7"/>
</svg>
