<svg width="11" height="11" viewBox="0 0 11 11" fill="none" xmlns="http://www.w3.org/2000/svg">
<path d="M5.5 0C2.475 0 0 2.475 0 5.5C0 8.525 2.475 11 5.5 11C8.525 11 11 8.525 11 5.5C11 2.475 8.525 0 5.5 0ZM5.775 1.96429C6.20714 1.96429 6.6 2.31786 6.6 2.78929C6.6 3.26071 6.24643 3.61429 5.775 3.61429C5.34286 3.61429 4.95 3.26071 4.95 2.78929C4.95 2.31786 5.30357 1.96429 5.775 1.96429ZM5.34286 9.38929C4.63571 9.38929 4.125 8.72143 4.32143 8.05357L5.02857 5.69643C5.10714 5.42143 4.91071 5.18571 4.63571 5.18571H4.28214C4.47857 4.59643 5.02857 4.20357 5.65714 4.20357C6.36429 4.20357 6.875 4.87143 6.67857 5.53929L5.97143 7.89643C5.89286 8.17143 6.08929 8.40714 6.36429 8.40714H6.71786C6.52143 8.99643 5.97143 9.38929 5.34286 9.38929Z" fill="#7665A7"/>
</svg>
