<svg width="16" height="15" viewBox="0 0 16 15" fill="none" xmlns="http://www.w3.org/2000/svg">
<path d="M14.2739 8.5375C13.893 8.5375 13.5843 8.84624 13.5843 9.22709V12.3996C13.5843 12.6098 13.4108 12.7837 13.1947 12.7837H2.61877C2.40263 12.7837 2.22918 12.6098 2.22918 12.3996V9.22709C2.22918 8.84624 1.92044 8.5375 1.53959 8.5375C1.15874 8.5375 0.85 8.84624 0.85 9.22709V12.3996C0.85 13.3674 1.64478 14.1519 2.61877 14.1519H13.1947C14.1687 14.1519 14.9635 13.3674 14.9635 12.3996V9.22709C14.9635 8.84624 14.6547 8.5375 14.2739 8.5375Z" fill="white" stroke="white" stroke-width="0.3"/>
<path d="M10.7921 7.1851C10.5367 6.93046 10.1234 6.93046 9.86797 7.1851L8.56025 8.48887V1.5052C8.56025 1.14334 8.26691 0.85 7.90505 0.85C7.54319 0.85 7.24985 1.14334 7.24985 1.5052V8.48887L5.94214 7.1851C5.68673 6.93046 5.27344 6.93046 5.01803 7.1851C4.76152 7.44083 4.76152 7.85627 5.01803 8.112L7.09311 10.1808C7.54193 10.6283 8.26818 10.6283 8.717 10.1808L10.7921 8.112C11.0486 7.85627 11.0486 7.44083 10.7921 7.1851Z" fill="white" stroke="white" stroke-width="0.3"/>
</svg>
