<svg width="26" height="25" viewBox="0 0 26 25" fill="none" xmlns="http://www.w3.org/2000/svg">
<rect width="25.0547" height="25" rx="12.5" fill="#150C2D"/>
<path d="M9.10546 8.6455C9.08289 8.66957 9.04475 8.71985 9.01927 8.7544C8.54552 9.38125 7.97937 10.3449 8.02178 11.275C8.09376 12.8323 10.2 14.9022 10.844 15.4995C11.4882 16.0966 13.7108 18.0416 15.2711 17.9993C15.5313 17.9929 15.8069 17.9384 16.0902 17.837C16.7441 17.6031 17.3344 17.1581 17.7093 16.8306C17.7093 16.8306 17.79 16.7621 17.8212 16.7291C17.8996 16.6447 17.9616 16.5214 18.0109 16.3523C18.036 16.2659 18.0414 16.1749 18.0414 16.1139C18.0414 16.046 18.0346 15.9144 17.9899 15.7946C17.9286 15.6307 17.8583 15.5135 17.7743 15.4347C17.712 15.377 16.3052 14.2772 16.2962 14.271L16.2855 14.264C16.2093 14.2056 16.1297 14.16 16.0488 14.1283C15.8367 14.0454 15.6019 14.0421 15.3873 14.1186C15.2509 14.1674 15.1281 14.2479 15.0334 14.35L14.5499 14.8664C14.5046 14.915 14.4203 14.9652 14.3906 14.9724C14.3592 14.9782 14.3375 14.9798 14.3234 14.9802L11.0786 11.9714C11.0709 11.964 11.067 11.9568 11.0648 11.9517C11.0664 11.9471 11.0683 11.943 11.0693 11.9399C11.0812 11.9158 11.1372 11.8393 11.2072 11.7636L11.6857 11.2469C11.9388 10.9753 12.0016 10.5528 11.8405 10.2234C11.7831 10.1059 11.7045 10.0182 11.6681 9.97685L11.6493 9.95355C11.6399 9.94287 10.4555 8.64588 10.4024 8.59716C10.2707 8.47505 10.0633 8.40904 9.7685 8.39507C9.60469 8.3873 9.39924 8.43545 9.27997 8.50941C9.20332 8.55736 9.14592 8.60201 9.10546 8.6455ZM9.99905 9.01881C10.0654 9.08598 11.1434 10.2642 11.1999 10.3259L11.2395 10.3738C11.2557 10.3919 11.2936 10.4344 11.3158 10.4795C11.3734 10.5975 11.3508 10.7512 11.2574 10.8516L10.7784 11.369C10.7224 11.4293 10.5862 11.5839 10.5321 11.7126C10.4963 11.7984 10.4794 11.8731 10.4792 11.9599C10.4851 12.1257 10.5555 12.2802 10.6796 12.3969L13.9571 15.436C14.0818 15.5515 14.2631 15.5884 14.4962 15.5455C14.6764 15.5123 14.8715 15.3764 14.9766 15.2642L15.4608 14.7468C15.4931 14.7121 15.5359 14.6845 15.5842 14.6671C15.6647 14.6383 15.7565 14.6397 15.8359 14.6707C15.8822 14.6888 15.9208 14.7189 15.9334 14.7288C15.9455 14.7381 15.9552 14.7449 15.9639 14.7503C16.0988 14.8546 17.3085 15.8033 17.3741 15.8584C17.3743 15.8588 17.4029 15.8909 17.4432 15.9982C17.4488 16.0134 17.4577 16.058 17.4577 16.1137C17.4577 16.1539 17.4533 16.1801 17.4504 16.1896C17.42 16.2937 17.3949 16.3302 17.3949 16.331C17.376 16.3498 17.3367 16.3822 17.3301 16.3878C16.9879 16.6866 16.461 17.0855 15.8931 17.2886C15.6686 17.369 15.4546 17.4121 15.2561 17.4169C14.1902 17.4459 12.4271 16.172 11.2415 15.0726C10.0557 13.9734 8.65389 12.3119 8.60486 11.2482C8.56906 10.4814 9.06888 9.65614 9.48037 9.11141L9.49612 9.09044C9.50527 9.07802 9.52181 9.05472 9.53037 9.04463C9.54496 9.03085 9.56675 9.01745 9.58406 9.00658C9.60994 8.99338 9.69029 8.97474 9.74049 8.97727C9.91286 8.98561 9.99263 9.01648 9.99905 9.01881Z" fill="#7665A7"/>
</svg>
