<svg width="26" height="25" viewBox="0 0 26 25" fill="none" xmlns="http://www.w3.org/2000/svg">
<rect width="25.0547" height="25" rx="12.5" fill="#150C2D"/>
<path fill-rule="evenodd" clip-rule="evenodd" d="M17.0062 8H8.04914C7.47922 8 7.01562 8.4679 7.01562 9.04311V15.3017C7.01562 15.8769 7.47922 16.3448 8.04914 16.3448H17.0062C17.5761 16.3448 18.0397 15.8769 18.0397 15.3017V9.04311C18.0397 8.4679 17.5761 8 17.0062 8ZM17.0071 8.69531C17.0539 8.69531 17.0984 8.70511 17.1391 8.72223L12.5286 12.7553L7.91799 8.72223C7.95869 8.70514 8.00322 8.69531 8.05003 8.69531H17.0071ZM7.70463 15.3017C7.70463 15.4936 7.85906 15.6494 8.04914 15.6494H17.0062C17.1963 15.6494 17.3507 15.4936 17.3507 15.3017V9.45703L12.7534 13.4783C12.6885 13.5351 12.6081 13.5632 12.5277 13.5632C12.4473 13.5632 12.3669 13.535 12.3019 13.4783L7.70463 9.45703V15.3017Z" fill="#7665A7"/>
</svg>
