<svg width="13" height="12" viewBox="0 0 13 12" fill="none" xmlns="http://www.w3.org/2000/svg">
<path d="M11.8981 1.01436C10.4733 -0.33838 8.19556 -0.338086 6.77112 1.01503L0.796881 6.81208C-0.28338 7.88501 -0.262735 9.60452 0.842994 10.6527C1.93053 11.6837 3.66741 11.6837 4.75494 10.6527L10.1647 5.40344C10.868 4.72102 10.868 3.61458 10.1647 2.93216C9.46144 2.24975 8.32117 2.24975 7.61789 2.93216L2.44332 7.95322C2.26284 8.13455 2.26802 8.42351 2.4549 8.59864C2.6372 8.76949 2.9262 8.76949 3.10851 8.59864L8.28305 3.57759C8.62618 3.25862 9.17084 3.26999 9.49953 3.60295C9.8183 3.92585 9.8183 4.43511 9.49953 4.75801L4.08979 10.0073C3.35897 10.7063 2.18249 10.6982 1.46207 9.98902C0.748921 9.28705 0.748921 8.15948 1.46207 7.45751L7.4363 1.66046C8.50047 0.627488 10.2261 0.627193 11.2906 1.65976C12.3552 2.69234 12.3555 4.3668 11.2914 5.39978L5.3171 11.1968C5.11977 11.3608 5.09678 11.649 5.26578 11.8404C5.43477 12.0319 5.73173 12.0542 5.92906 11.8902C5.94747 11.8749 5.96462 11.8583 5.98038 11.8404L11.9546 6.04339C13.3702 4.63953 13.3449 2.38794 11.8981 1.01436Z" fill="#6A5A97"/>
</svg>
