<svg width="25" height="29" viewBox="0 0 25 29" fill="none" xmlns="http://www.w3.org/2000/svg">
<path d="M21.3386 10.5607H20.7634V8.52541C20.7636 3.82467 16.9389 0 12.2385 0C7.53816 0 3.7131 3.8245 3.7131 8.52541V10.5607H3.13805C1.41207 10.5607 0 11.9727 0 13.6987V25.087C0 26.813 1.41207 28.2251 3.13805 28.2251H21.3387C23.0647 28.2251 24.4768 26.813 24.4768 25.087L24.4766 13.6987C24.4766 11.9727 23.0645 10.5607 21.3385 10.5607H21.3386ZM6.22388 8.52541C6.22388 5.20872 8.92193 2.51044 12.2388 2.51044C15.5558 2.51044 18.2538 5.20849 18.2538 8.52541V10.5607H6.22444L6.22388 8.52541ZM13.4935 21.3802C13.4935 22.0734 12.9314 22.6353 12.2384 22.6353C11.5452 22.6353 10.9833 22.0732 10.9833 21.3802V17.4053C10.9833 16.7121 11.5454 16.1502 12.2384 16.1502C12.9316 16.1502 13.4935 16.7123 13.4935 17.4053V21.3802Z" fill="#7665A7"/>
</svg>
