<svg width="68" height="58" viewBox="0 0 68 58" fill="none" xmlns="http://www.w3.org/2000/svg">
<path d="M14.7578 38.5186L8.61388 43.6834C8.3914 43.8704 8.12014 43.99 7.832 44.0281C7.54386 44.0663 7.25082 44.0213 6.98734 43.8986C6.72386 43.7759 6.50091 43.5805 6.34468 43.3354C6.18846 43.0903 6.10547 42.8057 6.10547 42.515V12.2138C6.10547 11.809 6.26627 11.4208 6.55251 11.1345C6.83874 10.8483 7.22696 10.6875 7.63175 10.6875H41.21C41.6148 10.6875 42.003 10.8483 42.2892 11.1345C42.5755 11.4208 42.7363 11.809 42.7363 12.2138V36.6343C42.7363 37.0391 42.5755 37.4273 42.2892 37.7136C42.003 37.9998 41.6148 38.1606 41.21 38.1606H15.7399C15.3806 38.1606 15.0328 38.2874 14.7578 38.5186Z" stroke="white" stroke-width="3.05257" stroke-linecap="round" stroke-linejoin="round"/>
<path d="M15.264 26.7117C16.5284 26.7117 17.5535 25.6867 17.5535 24.4222C17.5535 23.1578 16.5284 22.1328 15.264 22.1328C13.9996 22.1328 12.9746 23.1578 12.9746 24.4222C12.9746 25.6867 13.9996 26.7117 15.264 26.7117Z" fill="white"/>
<path d="M24.4203 26.7117C25.6847 26.7117 26.7097 25.6867 26.7097 24.4222C26.7097 23.1578 25.6847 22.1328 24.4203 22.1328C23.1559 22.1328 22.1309 23.1578 22.1309 24.4222C22.1309 25.6867 23.1559 26.7117 24.4203 26.7117Z" fill="white"/>
<path d="M33.5785 26.7117C34.8429 26.7117 35.8679 25.6867 35.8679 24.4222C35.8679 23.1578 34.8429 22.1328 33.5785 22.1328C32.3141 22.1328 31.2891 23.1578 31.2891 24.4222C31.2891 25.6867 32.3141 26.7117 33.5785 26.7117Z" fill="white"/>
<path d="M15.264 26.7117C16.5284 26.7117 17.5535 25.6867 17.5535 24.4222C17.5535 23.1578 16.5284 22.1328 15.264 22.1328C13.9996 22.1328 12.9746 23.1578 12.9746 24.4222C12.9746 25.6867 13.9996 26.7117 15.264 26.7117Z" fill="white"/>
<path d="M24.4203 26.7117C25.6847 26.7117 26.7097 25.6867 26.7097 24.4222C26.7097 23.1578 25.6847 22.1328 24.4203 22.1328C23.1559 22.1328 22.1309 23.1578 22.1309 24.4222C22.1309 25.6867 23.1559 26.7117 24.4203 26.7117Z" fill="white"/>
<path d="M33.5785 26.7117C34.8429 26.7117 35.8679 25.6867 35.8679 24.4222C35.8679 23.1578 34.8429 22.1328 33.5785 22.1328C32.3141 22.1328 31.2891 23.1578 31.2891 24.4222C31.2891 25.6867 32.3141 26.7117 33.5785 26.7117Z" fill="white"/>
<path d="M24.42 38.1592V45.7906C24.42 46.1954 24.5808 46.5836 24.867 46.8698C25.1533 47.156 25.5415 47.3169 25.9463 47.3169H51.4164C51.7757 47.3169 52.1234 47.4436 52.3985 47.6748L58.5424 52.8396C58.7649 53.0266 59.0361 53.1462 59.3243 53.1844C59.6124 53.2225 59.9054 53.1776 60.1689 53.0549C60.4324 52.9321 60.6553 52.7367 60.8116 52.4916C60.9678 52.2465 61.0508 51.9619 61.0508 51.6713V21.37C61.0508 20.9652 60.89 20.577 60.6037 20.2908C60.3175 20.0046 59.9293 19.8438 59.5245 19.8438H42.7354" stroke="white" stroke-width="3.05257" stroke-linecap="round" stroke-linejoin="round"/>
</svg>
