<svg width="26" height="25" viewBox="0 0 26 25" fill="none" xmlns="http://www.w3.org/2000/svg">
<rect width="25.0547" height="25" rx="12.5" fill="#150C2D"/>
<path d="M18.6551 8.97573L18.655 8.9757C18.153 8.78075 17.5711 8.8847 17.1757 9.25537L17.1756 9.25543L16.3355 10.0433C16.2359 9.15217 15.4399 8.5 14.5318 8.5H7.32985C6.35871 8.5 5.51562 9.2459 5.51562 10.2323V14.7677C5.51562 15.7541 6.35871 16.5 7.32985 16.5H14.5318C15.4399 16.5 16.236 15.8478 16.3355 14.9566L17.1756 15.7445L17.1758 15.7447C17.4413 15.9936 17.7899 16.121 18.1384 16.121C18.3121 16.121 18.4876 16.0893 18.655 16.0243L18.6551 16.0243C19.1606 15.8278 19.5156 15.3523 19.5156 14.798V10.202C19.5156 9.64772 19.1606 9.17213 18.6551 8.97573ZM11.78 12.5L10.2101 13.631V11.369L11.78 12.5ZM11.8999 12.5864C11.8999 12.5864 11.8999 12.5864 11.8998 12.5863L11.8999 12.5864ZM11.9 12.4135L11.8999 12.4136L11.9 12.4135Z" stroke="#7665A7"/>
</svg>
