<svg width="17" height="14" viewBox="0 0 17 14" fill="none" xmlns="http://www.w3.org/2000/svg">
<path fill-rule="evenodd" clip-rule="evenodd" d="M2.56435 13.0004H14.331C15.198 13.0004 15.8792 12.3404 15.8792 11.5005V4.30093C15.8792 3.46098 15.198 2.80103 14.331 2.80103H2.56435C1.69734 2.80103 1.01611 3.46098 1.01611 4.30093V11.5005C1.01611 12.3404 1.69734 13.0004 2.56435 13.0004ZM1.63585 4.29795C1.63585 3.81798 2.06935 3.39801 2.56479 3.39801H14.3314C14.8268 3.39801 15.2603 3.81798 15.2603 4.29795V11.4975C15.2603 11.9775 14.8268 12.3974 14.3314 12.3974H2.56479C2.06935 12.3974 1.63585 11.9775 1.63585 11.4975V4.29795Z" fill="#7665A7"/>
<path d="M14.331 12.8504H2.56435V13.1504H14.331V12.8504ZM15.7292 11.5005C15.7292 12.2531 15.1196 12.8504 14.331 12.8504V13.1504C15.2763 13.1504 16.0292 12.4277 16.0292 11.5005H15.7292ZM15.7292 4.30093V11.5005H16.0292V4.30093H15.7292ZM14.331 2.95103C15.1196 2.95103 15.7292 3.54827 15.7292 4.30093H16.0292C16.0292 3.37369 15.2763 2.65103 14.331 2.65103V2.95103ZM2.56435 2.95103H14.331V2.65103H2.56435V2.95103ZM1.16611 4.30093C1.16611 3.54827 1.77566 2.95103 2.56435 2.95103V2.65103C1.61901 2.65103 0.866113 3.37369 0.866113 4.30093H1.16611ZM1.16611 11.5005V4.30093H0.866113V11.5005H1.16611ZM2.56435 12.8504C1.77566 12.8504 1.16611 12.2531 1.16611 11.5005H0.866113C0.866113 12.4277 1.61901 13.1504 2.56435 13.1504V12.8504ZM2.56479 3.24801C1.99103 3.24801 1.48585 3.73069 1.48585 4.29795H1.78585C1.78585 3.90527 2.14767 3.54801 2.56479 3.54801V3.24801ZM14.3314 3.24801H2.56479V3.54801H14.3314V3.24801ZM15.4103 4.29795C15.4103 3.73069 14.9051 3.24801 14.3314 3.24801V3.54801C14.7485 3.54801 15.1103 3.90527 15.1103 4.29795H15.4103ZM15.4103 11.4975V4.29795H15.1103V11.4975H15.4103ZM14.3314 12.5474C14.9051 12.5474 15.4103 12.0647 15.4103 11.4975H15.1103C15.1103 11.8902 14.7485 12.2474 14.3314 12.2474V12.5474ZM2.56479 12.5474H14.3314V12.2474H2.56479V12.5474ZM1.48585 11.4975C1.48585 12.0647 1.99103 12.5474 2.56479 12.5474V12.2474C2.14767 12.2474 1.78585 11.8902 1.78585 11.4975H1.48585ZM1.48585 4.29795V11.4975H1.78585V4.29795H1.48585Z" fill="#7665A7"/>
<path d="M10.6154 3.39984C10.4296 3.39984 10.3058 3.27985 10.3058 3.09986V1.89994C10.3058 1.71995 10.1819 1.59996 9.99612 1.59996H6.89965C6.71386 1.59996 6.59 1.71995 6.59 1.89994V3.09986C6.59 3.27985 6.46614 3.39984 6.28035 3.39984C6.09456 3.39984 5.9707 3.27985 5.9707 3.09986V1.89994C5.9707 1.41997 6.40421 1 6.89965 1H9.99612C10.4916 1 10.9251 1.41997 10.9251 1.89994V3.09986C10.9251 3.27985 10.8012 3.39984 10.6154 3.39984Z" fill="#7665A7" stroke="#7665A7" stroke-width="0.3"/>
<path d="M8.44801 8.1976C8.38608 8.1976 8.38608 8.1976 8.32415 8.1976L1.20226 5.79775C1.0784 5.73776 0.954543 5.55777 1.01647 5.37778C1.0784 5.25779 1.26419 5.1378 1.44998 5.19779L8.44801 7.59764L15.446 5.19779C15.6318 5.1378 15.7557 5.19779 15.8176 5.37778C15.8795 5.55777 15.8176 5.67776 15.6318 5.73776L8.50994 8.1376C8.50994 8.1976 8.50994 8.1976 8.44801 8.1976Z" fill="#7665A7" stroke="#7665A7" stroke-width="0.3"/>
</svg>
